<svg id="svg" xmlns="http://www.w3.org/2000/svg" xmlns:xlink="http://www.w3.org/1999/xlink" width="400" height="400" viewBox="0, 0, 400,400"><g id="svgg"><path id="path0" d="M109.375 1.596 C 87.323 7.278,69.615 25.095,64.055 47.195 C 61.626 56.849,61.620 296.235,64.048 305.930 C 70.697 332.473,96.055 353.125,122.000 353.125 L 128.125 353.125 128.125 371.220 C 128.125 395.224,130.718 400.000,143.750 400.000 C 156.782 400.000,159.375 395.224,159.375 371.220 L 159.375 353.125 200.391 353.125 L 241.406 353.125 241.406 371.220 C 241.406 395.224,243.999 400.000,257.031 400.000 C 270.063 400.000,272.656 395.224,272.656 371.220 L 272.656 353.125 278.391 353.125 C 298.709 353.125,321.185 338.694,330.714 319.531 C 337.084 306.719,337.500 303.881,337.500 273.186 L 337.500 246.622 335.526 243.253 C 331.793 236.883,327.964 235.695,301.916 232.829 C 246.524 226.735,157.549 226.498,102.930 232.299 L 93.750 233.274 93.765 148.863 C 93.784 47.579,93.481 50.948,103.465 40.965 C 113.332 31.097,111.498 31.281,200.000 31.281 C 288.502 31.281,286.668 31.097,296.535 40.965 C 306.128 50.557,306.215 51.262,306.235 119.072 L 306.250 173.691 308.224 177.059 C 314.054 187.007,329.696 187.007,335.526 177.059 L 337.500 173.691 337.500 113.533 C 337.500 45.163,337.712 47.714,330.904 33.984 C 323.048 18.138,307.796 5.955,290.305 1.555 C 280.836 -0.828,118.637 -0.791,109.375 1.596 M192.355 65.721 C 180.044 71.815,153.331 110.944,148.448 130.036 C 132.814 191.165,219.955 224.524,247.535 167.969 C 259.203 144.041,254.700 125.053,232.062 102.734 C 220.401 91.238,218.515 88.251,217.347 79.434 C 215.601 66.261,204.059 59.928,192.355 65.721 M208.275 124.609 C 219.835 135.887,221.087 137.799,221.091 144.183 C 221.102 163.038,196.751 172.179,184.297 157.995 C 175.592 148.081,177.351 136.125,190.399 116.516 L 194.746 109.982 196.706 112.608 C 197.783 114.053,202.989 119.453,208.275 124.609 M232.422 260.532 C 256.101 261.017,290.213 263.319,303.320 265.316 L 306.250 265.762 306.235 277.217 C 306.196 305.743,298.318 318.192,278.491 321.057 C 271.146 322.119,128.854 322.119,121.509 321.057 C 101.687 318.193,93.804 305.741,93.765 277.235 L 93.750 265.799 96.289 265.348 C 99.779 264.728,121.983 262.717,137.109 261.651 C 151.186 260.659,194.163 259.562,205.469 259.906 C 209.551 260.030,221.680 260.312,232.422 260.532 M191.612 276.998 C 184.491 281.267,182.023 291.552,186.349 298.934 C 192.179 308.882,207.821 308.882,213.651 298.934 C 221.975 284.731,205.714 268.547,191.612 276.998 " stroke="none" fill="#000000" fill-rule="evenodd"></path></g></svg>