<svg id="svg" version="1.1" xmlns="http://www.w3.org/2000/svg" xmlns:xlink="http://www.w3.org/1999/xlink" width="400" height="400" viewBox="0, 0, 400,400"><g id="svgg"><path id="path0" d="M77.273 77.273 C -31.836 186.382,44.620 366.667,200.000 366.667 C 355.380 366.667,431.836 186.382,322.727 77.273 C 260.094 14.639,139.906 14.639,77.273 77.273 M283.333 116.667 C 355.470 188.803,302.193 316.667,200.000 316.667 C 97.807 316.667,44.530 188.803,116.667 116.667 C 159.522 73.811,240.478 73.811,283.333 116.667 M137.418 135.915 C 81.400 191.933,129.278 290.140,207.844 280.371 C 263.250 273.481,263.943 243.280,208.851 236.393 C 148.226 228.814,151.141 170.667,212.500 163.607 C 237.708 160.707,258.333 150.833,258.333 141.667 C 258.333 116.680,161.270 112.063,137.418 135.915 " stroke="none" fill="#ffffffb3" fill-rule="evenodd"></path></g></svg>