<svg id="svg" xmlns="http://www.w3.org/2000/svg" xmlns:xlink="http://www.w3.org/1999/xlink" width="400" height="400" viewBox="0, 0, 400,400"><g id="svgg"><path id="path0" d="M2.060 2.060 L 0.000 4.119 -0.000 70.703 L -0.000 137.287 2.060 139.347 C 4.996 142.283,10.629 142.283,13.565 139.347 L 15.625 137.287 15.625 92.081 L 15.625 46.875 40.234 46.875 L 64.844 46.875 64.844 190.625 C 64.844 269.688,64.685 334.375,64.490 334.375 C 64.296 334.375,61.756 332.261,58.846 329.678 C 46.767 318.955,33.647 319.005,21.465 329.818 L 16.016 334.656 15.816 267.430 L 15.616 200.204 13.561 198.149 C 10.629 195.218,4.993 195.220,2.060 198.153 L -0.000 200.213 0.000 274.220 C 0.000 347.567,0.014 348.245,1.596 350.256 C 5.887 355.711,21.351 352.513,30.248 344.330 C 39.119 336.172,41.331 336.158,50.084 344.203 C 63.271 356.323,82.230 355.814,96.058 342.970 C 102.827 336.683,105.022 336.749,112.546 343.462 C 127.012 356.370,145.523 356.182,160.616 342.975 C 167.682 336.791,169.945 336.791,176.598 342.970 C 190.874 356.230,209.126 356.230,223.402 342.970 C 225.746 340.793,228.471 338.809,229.457 338.562 C 232.433 337.815,234.628 338.819,239.098 342.970 C 253.787 356.613,271.504 356.343,286.680 342.244 C 292.488 336.847,295.034 336.973,301.563 342.979 C 315.969 356.233,334.127 356.229,348.402 342.970 C 355.065 336.782,357.435 336.782,364.098 342.970 C 377.989 355.872,400.000 356.805,400.000 344.492 C 400.000 341.586,399.578 340.417,397.940 338.778 C 395.787 336.625,394.879 336.412,388.992 336.681 C 387.020 336.770,384.119 336.306,382.547 335.649 L 379.687 334.455 379.688 328.638 C 379.688 312.134,367.655 296.036,352.396 292.125 L 348.644 291.164 348.198 277.808 C 346.149 216.471,297.783 167.987,236.523 165.863 L 223.438 165.409 223.438 136.327 L 223.438 107.244 221.378 105.185 C 219.321 103.128,219.299 103.125,206.729 103.142 C 190.100 103.165,184.718 105.420,179.585 114.514 L 177.195 118.750 144.141 118.750 L 111.087 118.750 108.696 114.514 C 104.280 106.689,97.656 103.168,87.305 103.142 L 80.469 103.125 80.469 75.000 L 80.469 46.875 94.034 46.875 L 107.599 46.875 109.659 44.815 L 111.719 42.756 111.719 23.437 L 111.719 4.119 109.659 2.060 L 107.599 0.000 55.859 0.000 L 4.119 0.000 2.060 2.060 M96.094 23.438 L 96.094 31.250 55.859 31.250 L 15.625 31.250 15.625 23.438 L 15.625 15.625 55.859 15.625 L 96.094 15.625 96.094 23.438 M92.547 120.611 C 96.012 122.881,96.154 125.180,95.922 175.170 C 95.689 225.358,95.784 224.135,91.919 226.549 C 91.039 227.099,88.102 227.726,85.394 227.944 L 80.469 228.339 80.469 173.438 L 80.469 118.536 85.547 118.944 C 88.340 119.168,91.490 119.918,92.547 120.611 M207.813 173.438 L 207.813 228.125 204.492 228.121 C 196.628 228.110,193.507 225.925,192.519 219.735 C 192.206 217.771,191.192 215.623,190.029 214.461 L 188.068 212.500 149.893 212.500 L 111.719 212.500 111.719 173.438 L 111.719 134.375 144.141 134.375 L 176.563 134.375 176.563 163.565 L 176.563 192.756 178.622 194.815 C 181.543 197.736,187.192 197.751,190.097 194.846 L 192.126 192.817 192.352 158.678 C 192.624 117.603,192.199 119.046,204.102 118.820 L 207.813 118.750 207.813 173.438 M2.060 162.997 C -3.055 168.112,0.529 176.563,7.813 176.563 C 12.994 176.563,15.625 173.931,15.625 168.750 C 15.625 163.569,12.994 160.938,7.813 160.938 C 4.864 160.938,3.704 161.353,2.060 162.997 M248.438 183.289 C 298.815 192.098,330.597 231.540,332.549 287.674 C 333.149 304.914,333.492 305.698,340.859 306.626 C 350.576 307.850,359.191 313.408,361.468 319.922 L 362.287 322.266 357.106 322.013 C 349.773 321.656,344.530 323.777,338.037 329.726 C 330.566 336.572,325.879 338.086,319.897 335.587 L 317.188 334.455 317.188 314.600 L 317.188 294.744 315.128 292.685 C 312.192 289.749,306.558 289.749,303.622 292.685 L 301.563 294.744 301.563 308.505 L 301.563 322.266 293.750 322.266 L 285.938 322.266 285.938 285.067 L 285.938 247.869 283.878 245.810 C 282.233 244.165,281.074 243.750,278.125 243.750 C 275.176 243.750,274.017 244.165,272.372 245.810 L 270.313 247.869 270.313 291.162 L 270.313 334.455 267.603 335.587 C 261.621 338.086,256.934 336.572,249.463 329.726 C 239.189 320.311,226.255 319.196,216.208 326.859 L 213.482 328.939 212.156 326.914 C 199.579 307.720,219.537 284.526,241.016 293.374 C 247.493 296.042,251.767 295.403,253.883 291.450 C 255.528 288.376,254.908 245.410,253.137 239.674 C 249.399 227.575,238.650 216.885,227.292 213.974 L 223.438 212.986 223.438 197.041 L 223.438 181.096 232.617 181.612 C 237.666 181.896,244.785 182.651,248.438 183.289 M334.872 183.310 C 330.283 187.899,331.311 190.557,344.349 207.803 C 355.239 222.208,356.126 223.166,360.810 225.577 C 370.202 230.411,383.289 228.259,389.543 220.853 C 399.778 208.732,396.406 190.510,382.656 183.639 L 377.875 181.250 357.404 181.250 L 336.932 181.250 334.872 183.310 M373.610 197.691 C 381.697 199.937,380.223 211.719,371.855 211.719 C 368.378 211.719,367.103 210.700,362.081 203.906 C 360.017 201.113,357.993 198.389,357.584 197.852 C 356.634 196.605,369.244 196.478,373.610 197.691 M179.585 232.361 C 184.718 241.455,190.100 243.710,206.729 243.733 C 222.165 243.754,223.438 243.092,223.438 235.050 C 223.438 229.899,223.797 229.682,227.945 232.328 C 236.631 237.871,239.050 244.821,239.058 264.258 L 239.063 275.000 231.723 275.000 C 201.279 275.000,181.426 308.348,196.904 333.487 C 200.126 338.719,194.424 336.562,186.963 329.726 C 175.530 319.250,162.589 319.097,150.911 329.299 C 139.725 339.071,132.787 339.140,122.027 329.589 C 110.157 319.052,97.268 319.120,85.634 329.780 L 80.469 334.513 80.469 289.132 L 80.469 243.750 87.305 243.733 C 97.656 243.707,104.280 240.186,108.696 232.361 L 111.087 228.125 144.141 228.125 L 177.195 228.125 179.585 232.361 M303.622 261.435 C 301.978 263.079,301.563 264.239,301.563 267.188 C 301.563 270.136,301.978 271.296,303.622 272.940 C 305.267 274.585,306.426 275.000,309.375 275.000 C 312.324 275.000,313.483 274.585,315.128 272.940 C 316.772 271.296,317.188 270.136,317.188 267.188 C 317.188 264.239,316.772 263.079,315.128 261.435 C 313.483 259.790,312.324 259.375,309.375 259.375 C 306.426 259.375,305.267 259.790,303.622 261.435 M381.747 277.060 C 380.103 278.704,379.688 279.864,379.688 282.813 C 379.688 285.761,380.103 286.921,381.747 288.565 C 383.392 290.210,384.551 290.625,387.500 290.625 C 390.449 290.625,391.608 290.210,393.253 288.565 C 394.897 286.921,395.313 285.761,395.313 282.813 C 395.313 279.864,394.897 278.704,393.253 277.060 C 391.608 275.415,390.449 275.000,387.500 275.000 C 384.551 275.000,383.392 275.415,381.747 277.060 M162.997 292.685 C 161.353 294.329,160.938 295.489,160.938 298.438 C 160.938 301.386,161.353 302.546,162.997 304.190 C 164.642 305.835,165.801 306.250,168.750 306.250 C 171.699 306.250,172.858 305.835,174.503 304.190 C 176.147 302.546,176.563 301.386,176.563 298.438 C 176.563 295.489,176.147 294.329,174.503 292.685 C 172.858 291.040,171.699 290.625,168.750 290.625 C 165.801 290.625,164.642 291.040,162.997 292.685 M34.154 369.555 C 29.755 370.662,26.963 372.309,22.254 376.573 C 17.015 381.318,13.307 383.246,8.046 383.960 C 2.420 384.723,0.000 387.198,-0.000 392.188 C -0.000 403.751,18.008 402.685,31.888 390.301 C 39.360 383.634,41.103 383.628,48.517 390.244 C 63.402 403.525,83.908 403.368,96.484 389.875 C 102.025 383.931,104.798 383.997,111.798 390.244 C 126.566 403.421,146.063 403.306,161.173 389.953 C 167.886 384.019,170.700 384.005,176.172 389.875 C 177.461 391.258,180.273 393.519,182.422 394.900 C 195.557 403.342,213.281 401.191,223.828 389.875 C 229.263 384.044,232.423 384.022,238.562 389.773 C 253.534 403.801,270.886 403.828,286.325 389.846 C 292.755 384.023,295.723 384.029,301.172 389.875 C 313.759 403.379,334.025 403.540,348.377 390.248 C 355.367 383.776,356.981 383.796,364.321 390.448 C 378.613 403.400,400.000 403.969,400.000 391.398 C 400.000 385.861,396.942 383.594,389.474 383.594 C 382.393 383.594,380.569 382.791,374.074 376.820 C 362.559 366.234,349.941 366.234,338.426 376.820 C 328.174 386.245,321.826 386.245,311.574 376.820 C 305.183 370.945,301.134 369.218,293.750 369.218 C 286.366 369.218,282.317 370.945,275.926 376.820 C 265.674 386.245,259.326 386.245,249.074 376.820 C 237.559 366.234,224.941 366.234,213.426 376.820 C 203.174 386.245,196.826 386.245,186.574 376.820 C 175.172 366.338,162.568 366.242,151.183 376.552 C 140.577 386.158,132.045 386.126,121.352 376.443 C 110.095 366.248,97.435 366.383,86.082 376.820 C 75.845 386.231,68.784 386.145,58.108 376.476 C 51.123 370.151,42.122 367.550,34.154 369.555 " stroke="none" fill="#000000" fill-rule="evenodd"></path></g></svg>