<svg id="svg" version="1.1" xmlns="http://www.w3.org/2000/svg" xmlns:xlink="http://www.w3.org/1999/xlink" width="400" height="400" viewBox="0, 0, 400,400"><g id="svgg"><path id="path0" d="M22.844 73.930 C 6.491 91.999,7.435 312.229,23.930 327.156 C 42.200 343.691,362.100 342.708,377.156 326.070 C 393.509 308.001,392.565 87.771,376.070 72.844 C 357.800 56.309,37.900 57.292,22.844 73.930 M356.661 87.720 C 375.845 97.987,372.993 101.346,291.187 164.819 C 197.005 237.895,205.781 237.722,114.875 168.291 C 21.696 97.126,25.494 101.100,40.257 90.204 C 55.206 79.171,336.559 76.962,356.661 87.720 M83.195 173.638 C 103.171 188.862,118.566 201.725,117.406 202.222 C 116.246 202.719,96.387 221.325,73.274 243.569 L 31.250 284.014 31.250 210.388 C 31.250 153.202,32.994 137.789,39.063 141.359 C 43.359 143.888,63.219 158.413,83.195 173.638 M368.750 210.757 L 368.750 284.014 328.080 243.705 C 305.711 221.535,288.133 201.470,289.017 199.116 C 290.632 194.816,362.911 137.500,366.717 137.500 C 367.835 137.500,368.750 170.466,368.750 210.757 M354.550 313.683 C 344.239 320.233,55.322 319.952,44.963 313.382 C 39.078 309.650,50.884 295.509,87.268 262.709 L 137.736 217.213 161.391 233.607 C 194.799 256.759,231.000 252.300,256.206 221.928 C 263.722 212.872,269.869 216.994,313.425 260.295 C 346.999 293.672,359.830 310.329,354.550 313.683 " stroke="none" fill="#ffffff" fill-rule="evenodd"></path></g></svg>