<svg id="svg" version="1.1" xmlns="http://www.w3.org/2000/svg" xmlns:xlink="http://www.w3.org/1999/xlink" width="400" height="400" viewBox="0, 0, 400,400"><g id="svgg"><path id="path0" d="M27.806 95.452 C 26.086 99.936,25.453 149.903,26.401 206.490 L 28.125 309.375 200.000 309.375 L 371.875 309.375 371.875 200.000 L 371.875 90.625 201.405 88.962 C 65.803 87.639,30.295 88.966,27.806 95.452 M148.238 202.735 C 147.412 202.950,135.518 212.969,121.806 225.000 L 96.875 246.875 118.435 223.416 L 139.994 199.956 115.315 173.416 L 90.636 146.875 120.187 174.610 C 136.440 189.865,149.063 202.521,148.238 202.735 M281.250 178.125 C 266.069 193.594,252.241 206.250,250.522 206.250 C 248.804 206.250,259.819 193.594,275.000 178.125 C 290.181 162.656,304.009 150.000,305.728 150.000 C 307.446 150.000,296.431 162.656,281.250 178.125 M334.375 268.750 C 354.785 289.375,370.077 306.250,368.359 306.250 C 366.640 306.250,348.535 289.375,328.125 268.750 C 307.715 248.125,292.423 231.250,294.141 231.250 C 295.860 231.250,313.965 248.125,334.375 268.750 " stroke="none" fill="#ffffff" fill-rule="evenodd"></path></g></svg>