<svg id="svg" xmlns="http://www.w3.org/2000/svg" xmlns:xlink="http://www.w3.org/1999/xlink" width="400" height="400" viewBox="0, 0, 400,400"><g id="svgg"><path id="path0" d="M51.201 1.607 C 46.786 3.809,43.829 6.836,41.706 11.328 L 39.859 15.234 39.851 68.896 L 39.844 122.558 34.640 125.120 C 25.163 129.785,15.742 141.514,14.292 150.452 C 13.934 152.654,13.158 153.669,10.630 155.236 C -5.010 164.931,-3.408 187.035,13.338 192.597 C 19.879 194.769,104.771 193.942,109.026 191.664 C 123.856 183.725,123.848 161.238,109.013 155.040 C 106.941 154.174,106.327 153.381,105.888 151.005 C 104.127 141.471,93.944 128.789,84.974 124.959 L 80.495 123.047 80.482 70.259 C 80.467 12.333,80.485 12.564,75.805 6.906 C 70.448 0.430,58.653 -2.111,51.201 1.607 M64.171 15.556 L 66.016 17.049 66.227 68.290 L 66.439 119.531 60.173 119.531 L 53.906 119.531 53.906 68.855 C 53.906 18.771,53.925 18.155,55.525 16.121 C 57.506 13.603,61.442 13.346,64.171 15.556 M347.651 106.980 C 339.800 109.368,332.813 118.071,332.813 125.459 C 332.813 126.188,326.784 126.502,307.617 126.775 C 255.866 127.513,224.073 143.345,199.459 180.637 C 184.237 203.701,180.536 218.534,179.717 259.766 C 179.094 291.110,178.863 292.550,173.052 301.313 C 151.365 334.017,100.781 319.169,100.781 280.099 L 100.781 273.643 103.906 273.224 C 110.346 272.360,116.874 266.866,119.198 260.353 C 121.242 254.624,120.691 223.106,118.464 218.359 C 112.892 206.486,113.814 206.680,61.809 206.420 C 8.090 206.152,7.550 206.250,2.024 217.340 C -0.840 223.086,-1.134 256.538,1.628 262.245 C 4.539 268.258,12.052 273.438,17.864 273.438 C 19.417 273.438,19.531 273.836,19.531 279.266 C 19.531 385.561,147.261 440.107,223.722 366.464 C 250.254 340.909,260.150 314.299,260.162 268.477 C 260.171 235.962,261.739 229.523,272.193 219.068 C 282.240 209.022,289.289 207.031,314.826 207.031 L 332.564 207.031 333.529 211.346 C 334.775 216.911,338.296 221.453,343.750 224.529 L 348.047 226.953 366.406 226.953 C 386.965 226.953,388.975 226.530,394.463 221.042 C 400.168 215.336,399.964 217.349,399.983 166.755 L 400.000 121.401 397.976 117.340 C 395.497 112.365,391.480 108.920,386.382 107.399 C 382.203 106.153,351.465 105.820,347.651 106.980 M384.445 122.547 C 385.873 124.312,385.938 126.224,385.938 166.747 L 385.938 209.103 383.924 210.997 C 381.323 213.442,356.428 214.356,351.257 212.195 C 346.790 210.329,346.816 210.618,347.050 165.454 L 347.266 124.083 349.510 122.153 L 351.753 120.223 367.353 120.463 C 382.670 120.699,382.981 120.737,384.445 122.547 M67.969 134.427 C 78.166 136.077,87.215 142.263,90.327 149.710 C 91.892 153.456,94.639 153.168,59.583 152.939 L 28.298 152.734 29.951 149.219 C 35.424 137.581,50.708 131.634,67.969 134.427 M332.813 166.797 L 332.813 192.969 313.815 192.969 C 293.485 192.969,288.441 193.526,280.469 196.654 C 261.746 203.999,249.224 220.573,246.474 241.648 C 246.205 243.715,245.745 245.279,245.453 245.125 C 232.628 238.325,220.163 238.062,209.375 244.364 C 206.424 246.088,204.871 246.428,199.705 246.478 L 193.551 246.539 194.077 239.573 C 197.744 191.003,234.715 149.710,281.250 142.210 C 284.473 141.690,287.637 141.162,288.281 141.036 C 288.926 140.910,299.209 140.765,311.133 140.716 L 332.813 140.625 332.813 166.797 M104.332 169.105 C 106.919 171.692,106.785 174.585,103.947 177.424 L 101.643 179.727 59.346 179.512 L 17.049 179.297 15.556 177.453 C 13.346 174.723,13.603 170.787,16.121 168.807 C 18.146 167.214,18.871 167.188,60.297 167.188 L 102.415 167.188 104.332 169.105 M102.611 221.180 C 105.831 222.647,106.250 224.893,106.250 240.697 C 106.250 255.414,106.234 255.556,104.332 257.457 L 102.415 259.375 60.047 259.375 L 17.679 259.375 15.871 257.676 C 14.098 256.011,14.062 255.671,14.063 240.437 C 14.063 224.243,14.397 222.323,17.434 221.099 C 20.053 220.044,100.285 220.120,102.611 221.180 M234.766 255.768 C 243.474 259.885,246.053 265.186,246.077 279.024 C 246.235 370.315,140.448 419.175,70.615 360.065 C 56.944 348.494,40.306 324.192,44.137 321.391 C 47.545 318.899,53.125 322.579,53.125 327.319 C 53.125 333.229,60.489 335.724,64.904 331.310 C 67.525 328.688,67.768 326.380,66.024 320.632 C 64.491 315.577,64.418 315.817,67.773 314.885 C 74.814 312.930,82.408 314.533,81.196 317.719 C 79.950 320.998,81.650 324.921,84.909 326.282 C 89.383 328.152,93.483 325.854,95.258 320.481 C 97.357 314.127,97.755 314.080,103.646 319.478 C 132.325 345.757,178.433 333.631,191.075 296.484 C 192.949 290.976,193.246 288.719,193.579 277.462 C 193.927 265.709,194.095 264.530,195.683 262.684 C 199.461 258.292,205.458 261.142,206.529 267.837 C 207.142 271.673,209.335 273.438,213.491 273.438 C 219.654 273.438,221.885 267.967,219.084 259.719 C 218.409 257.729,217.970 256.008,218.108 255.892 C 220.979 253.499,229.826 253.433,234.766 255.768 M86.497 282.617 C 86.971 287.925,88.034 293.903,89.016 296.790 C 91.175 303.132,90.635 303.673,84.290 301.529 C 74.998 298.390,58.103 300.803,53.898 305.869 C 53.337 306.546,51.581 306.727,48.221 306.458 C 44.850 306.187,42.476 306.435,40.492 307.264 L 37.627 308.461 36.378 302.844 C 34.783 295.678,33.607 285.461,33.600 278.711 L 33.594 273.438 59.636 273.438 L 85.678 273.438 86.497 282.617 M214.688 288.867 C 210.638 293.197,209.796 295.874,209.666 304.847 C 209.561 312.059,209.317 313.499,207.897 315.304 C 204.067 320.174,207.206 326.918,213.303 326.918 C 220.033 326.918,224.835 317.655,223.805 306.659 C 223.317 301.452,223.435 300.636,224.991 298.450 C 230.469 290.758,221.086 282.030,214.688 288.867 M187.109 333.905 C 182.169 335.468,179.592 337.063,175.209 341.273 C 171.004 345.310,170.447 345.605,165.392 346.459 C 161.696 347.083,159.079 350.700,159.747 354.259 C 161.435 363.249,174.546 362.010,185.192 351.855 C 188.664 348.543,190.371 347.511,193.263 346.970 C 198.128 346.061,200.000 344.282,200.000 340.568 C 200.000 333.696,195.358 331.297,187.109 333.905 M95.459 341.130 C 90.162 345.422,93.257 352.649,100.918 353.876 C 106.233 354.728,108.589 355.876,113.705 360.107 C 121.228 366.330,134.483 368.972,138.432 365.035 C 142.254 361.224,139.488 353.125,134.363 353.125 C 130.379 353.125,124.991 350.919,121.178 347.727 C 113.128 340.987,99.840 337.578,95.459 341.130 " stroke="none" fill="#000000" fill-rule="evenodd"></path></g></svg>