<?xml version="1.0" encoding="utf-8"?>
<!-- Generator: Adobe Illustrator 22.0.0, SVG Export Plug-In . SVG Version: 6.00 Build 0)  -->
<svg version="1.1" id="Capa_1" xmlns="http://www.w3.org/2000/svg" xmlns:xlink="http://www.w3.org/1999/xlink" x="0px" y="0px"
	 viewBox="0 0 388.2 388.2" style="enable-background:new 0 0 388.2 388.2;" xml:space="preserve">
<style type="text/css">
	.st0{fill:#FFFFFF;}
</style>
<g>
	<path class="st0" d="M194.1,190.5c36.7,0,66.4-36.1,66.4-80.7c0-44.6-9.8-80.7-66.4-80.7c-56.7,0-66.4,36.1-66.4,80.7
		C127.7,154.4,157.4,190.5,194.1,190.5z"/>
	<path class="st0" d="M319.5,310.5c-1.2-77.6-11.4-99.8-89-113.8c0,0-10.9,13.9-36.4,13.9s-36.4-13.9-36.4-13.9
		C81,210.5,70.2,232.3,68.8,307.9c-0.1,6.2-0.2,6.5-0.2,5.8c0,1.3,0,3.8,0,8.2c0,0,18.5,37.2,125.5,37.2s125.5-37.2,125.5-37.2
		c0-2.8,0-4.7,0-6C319.6,316.3,319.5,315.4,319.5,310.5z"/>
	<path class="st0" d="M286.3,176.1c29.8,0,54-29.3,54-65.5c0-36.2-7.9-65.5-54-65.5c-7.7,0-14.4,0.8-20.1,2.4
		c10.6,19.6,12.1,43.4,12.1,62.4c0,21.5-5.8,42.1-16.6,59.1C269.1,173.5,277.4,176.1,286.3,176.1z"/>
	<path class="st0" d="M388.1,273.5c-1-63.1-9.2-81-72.3-92.4c0,0-8.9,11.3-29.5,11.3c-0.9,0-1.7,0-2.5-0.1
		c13.1,5.9,25.1,14.2,33.9,26.2c15.2,20.9,18.7,48.9,19.4,90.1c42.4-8.4,51.1-25.9,51.1-25.9c0-2.3,0-3.8,0-4.9
		C388.2,278.3,388.2,277.6,388.1,273.5z"/>
	<path class="st0" d="M101.9,176.1c8.9,0,17.2-2.6,24.6-7.2c-10.7-17-16.6-37.5-16.6-59.1c0-19,1.5-42.8,12.1-62.4
		c-5.7-1.6-12.4-2.4-20.1-2.4c-46,0-54,29.3-54,65.5C48,146.8,72.1,176.1,101.9,176.1z"/>
	<path class="st0" d="M104.4,192.4c-0.8,0-1.6,0.1-2.5,0.1c-20.7,0-29.5-11.3-29.5-11.3c-63,11.4-71.3,29.3-72.3,92.4
		c-0.1,4.1-0.1,4.7-0.1,4.4c0,1.1,0,2.6,0,4.9c0,0,8.7,17.5,51.1,25.9c0.7-41.2,4.2-69.2,19.4-90.1
		C79.3,206.5,91.3,198.3,104.4,192.4z"/>
</g>
</svg>
