<?xml version="1.0" encoding="utf-8"?>
<!-- Generator: Adobe Illustrator 22.0.0, SVG Export Plug-In . SVG Version: 6.00 Build 0)  -->
<svg version="1.1" id="Layer_1" xmlns="http://www.w3.org/2000/svg" xmlns:xlink="http://www.w3.org/1999/xlink" x="0px" y="0px"
	 viewBox="0 0 512 512" style="enable-background:new 0 0 512 512;" xml:space="preserve">
<style type="text/css">
	.st0{fill:#FFFFFF;}
</style>
<path class="st0" d="M475.3,217.8c8.4,0,15.2-6.8,15.2-15.2V123c0-5.8-3.3-11.1-8.5-13.7L263,1.6c-4.2-2.1-9.2-2.1-13.5,0
	l-219,107.7c-5.2,2.6-8.5,7.9-8.5,13.7v79.6c0,8.4,6.8,15.2,15.2,15.2h15.6V428H37.2c-8.4,0-15.2,6.8-15.2,15.2v53.5
	c0,8.4,6.8,15.2,15.2,15.2h438c8.4,0,15.2-6.8,15.2-15.2v-53.5c0-8.4-6.8-15.2-15.2-15.2h-15.6V217.8H475.3z M52.5,132.5L256.3,32.2
	L460,132.5v54.9H52.5V132.5z M306.2,428V217.8h53.7V428H306.2z M206.3,217.8V428h-53.7V217.8H206.3z M236.8,217.8h38.9V428h-38.9
	V217.8z M83.3,217.8h38.9V428H83.3V217.8z M460,481.5H52.5v-23H460V481.5z M429.3,428h-38.9V217.8h38.9V428z"/>
<path class="st0" d="M338.5,90.8H174c-8.4,0-15.2,6.8-15.2,15.2v49.8c0,8.4,6.8,15.2,15.2,15.2h164.4c8.4,0,15.2-6.8,15.2-15.2V106
	C353.7,97.6,346.9,90.8,338.5,90.8z M323.2,140.6h-134v-19.3h134V140.6z"/>
</svg>
