<?xml version="1.0" encoding="utf-8"?>
<!-- Generator: Adobe Illustrator 22.0.0, SVG Export Plug-In . SVG Version: 6.00 Build 0)  -->
<svg version="1.1" id="Layer_1" xmlns="http://www.w3.org/2000/svg" xmlns:xlink="http://www.w3.org/1999/xlink" x="0px" y="0px"
	 viewBox="0 0 512 512" style="enable-background:new 0 0 512 512;" xml:space="preserve">
<style type="text/css">
	.st0{fill:#FFFFFF;}
</style>
<g>
	<path class="st0" d="M0,0v331.3h512V0H0z M60.2,75.3h30.1v30.1H60.2V75.3z M60.2,135.5h316.2v30.1H60.2V135.5z M60.2,195.8h30.1
		v30.1H60.2V195.8z M376.5,286.1H60.2V256h316.2V286.1z M436.7,286.1h-30.1V256h30.1V286.1z M436.7,225.9H120.5v-30.1h316.2V225.9z
		 M436.7,165.6h-30.1v-30.1h30.1V165.6z M436.7,105.4H120.5V75.3h316.2V105.4z"/>
	<path class="st0" d="M0,421.6h225.9v60.2h-77.5V512h215.2v-30.1h-77.5v-60.2H512v-60.2H0V421.6z"/>
</g>
</svg>
