<svg id="Capa_1" enable-background="new 0 0 512 512" height="512" viewBox="0 0 512 512" width="512" xmlns="http://www.w3.org/2000/svg"><g><path d="m508.331 305.171-32.338-37.279c23.308-29.158 36.007-65.208 36.007-102.892 0-90.981-74.018-165-165-165s-165 74.019-165 165c0 6.081.341 12.083.985 17.995-5.964-.649-11.969-.995-17.985-.995-90.981 0-165 74.019-165 165 0 37.684 12.699 73.733 36.007 102.892l-32.338 37.279c-3.849 4.438-4.754 10.713-2.315 16.057 2.439 5.343 7.772 8.772 13.646 8.772h150c90.981 0 165-74.019 165-165 0-6.016-.346-12.021-.995-17.985 5.912.644 11.914.985 17.995.985h150c5.874 0 11.208-3.429 13.646-8.772 2.439-5.344 1.534-11.619-2.315-16.057zm-343.331 176.829h-117.131l19.325-22.277c5.048-5.819 4.867-14.517-.419-20.121-23.714-25.145-36.775-58.032-36.775-92.602 0-74.439 60.561-135 135-135 8.234 0 16.442.75 24.501 2.228 16.118 51.459 56.812 92.153 108.271 108.271 1.478 8.059 2.228 16.267 2.228 24.501 0 74.44-60.56 135-135 135zm182-182c-74.439 0-135-60.561-135-135s60.561-135 135-135 135 60.561 135 135c0 34.57-13.061 67.457-36.775 92.602-5.286 5.604-5.467 14.302-.419 20.121l19.325 22.277z"/><circle cx="347" cy="252" r="15"/><path d="m348.18 62.012c-29.109-.597-54.15 20.706-58.173 49.529-.368 2.636-.554 5.329-.554 8.007 0 8.284 6.716 15 15 15s15-6.716 15-15c0-1.296.089-2.596.266-3.861 1.897-13.596 13.578-23.687 27.293-23.687.188 0 .375.002.564.006 14.359.289 26.19 11.734 26.933 26.056.397 7.649-2.278 14.909-7.532 20.443-5.259 5.539-12.354 8.59-19.977 8.59-8.284 0-15 6.716-15 15v44.491c0 8.284 6.716 15 15 15s15-6.716 15-15v-31.5c10.112-2.746 19.424-8.227 26.732-15.925 10.976-11.56 16.564-26.708 15.736-42.654-1.554-29.953-26.279-53.89-56.288-54.495z"/><path d="m215 302h-100c-8.284 0-15 6.716-15 15s6.716 15 15 15h100c8.284 0 15-6.716 15-15s-6.716-15-15-15z"/><path d="m215 362h-100c-8.284 0-15 6.716-15 15s6.716 15 15 15h100c8.284 0 15-6.716 15-15s-6.716-15-15-15z"/></g></svg>