<?xml version="1.0" standalone="no"?>
<!DOCTYPE svg PUBLIC "-//W3C//DTD SVG 20010904//EN"
 "http://www.w3.org/TR/2001/REC-SVG-20010904/DTD/svg10.dtd">
<svg version="1.0" xmlns="http://www.w3.org/2000/svg"
 width="1556.000000pt" height="1106.000000pt" viewBox="0 0 1556.000000 1106.000000"
 preserveAspectRatio="xMidYMid meet">
<metadata>
Created by potrace 1.16, written by Peter Selinger 2001-2019
</metadata>
<g transform="translate(0.000000,1106.000000) scale(0.100000,-0.100000)"
fill="#ffffff" stroke="none">
<path d="M10202 11050 c-59 -12 -137 -57 -174 -99 -106 -121 -115 -325 -20
-449 47 -62 67 -78 132 -110 48 -23 67 -26 150 -26 75 1 108 6 154 24 71 27
141 93 176 165 22 44 25 63 25 160 0 95 -3 116 -24 157 -56 115 -161 180 -296
184 -44 2 -99 -1 -123 -6z m145 -49 c81 -37 130 -184 121 -366 -8 -141 -55
-214 -145 -222 -121 -10 -193 114 -195 337 0 149 30 222 107 256 41 18 63 17
112 -5z"/>
<path d="M10810 11051 c0 -5 16 -15 35 -21 19 -6 37 -20 40 -30 7 -23 -53
-518 -66 -542 -12 -22 -41 -38 -69 -38 -13 0 -20 -5 -18 -12 4 -11 133 -34
206 -37 34 -1 26 24 -10 34 -54 16 -56 37 -22 308 l29 242 73 -250 c40 -137
79 -274 88 -302 9 -29 21 -53 27 -53 7 0 80 119 162 264 83 145 151 256 153
247 1 -9 -11 -122 -27 -251 -32 -256 -34 -260 -98 -260 -42 0 -43 -17 0 -25
65 -11 272 -35 299 -35 37 0 36 19 -1 26 -65 13 -65 12 -27 312 19 154 39 278
46 287 7 9 29 15 51 15 42 0 53 17 17 24 -13 3 -66 10 -118 16 -52 6 -105 13
-116 15 -19 4 -36 -21 -135 -196 -99 -177 -114 -198 -122 -177 -4 12 -33 111
-64 218 -30 107 -56 196 -58 198 -3 3 -225 32 -252 32 -13 0 -23 -4 -23 -9z"/>
<path d="M9695 11005 c-5 -2 -36 -11 -67 -20 -63 -18 -80 -44 -27 -41 51 2 54
-12 39 -205 -7 -96 -15 -178 -17 -182 -6 -10 -233 293 -233 311 0 8 14 19 30
25 26 10 42 37 23 37 -5 0 -77 -19 -160 -42 -93 -26 -153 -48 -153 -55 0 -8
13 -13 33 -13 34 0 78 -37 126 -107 21 -31 22 -36 10 -140 -6 -59 -15 -114
-19 -122 -5 -9 -40 29 -110 120 -135 174 -145 192 -126 212 9 8 21 17 28 20 9
3 10 8 3 15 -7 6 -43 0 -110 -19 -55 -16 -117 -34 -137 -40 -42 -11 -52 -39
-15 -39 31 0 54 -26 272 -308 103 -134 192 -241 199 -239 10 3 22 75 56 355
l12 103 134 -181 c73 -99 140 -180 149 -180 9 0 15 9 15 25 0 36 49 594 56
633 3 18 14 41 25 50 10 9 19 20 19 24 0 8 -36 10 -55 3z"/>
<path d="M11870 10886 c0 -8 8 -17 19 -21 10 -3 26 -14 36 -25 16 -18 13 -30
-70 -279 -47 -143 -93 -265 -101 -272 -8 -7 -30 -9 -54 -6 -29 4 -40 2 -40 -8
0 -9 96 -45 263 -101 144 -48 267 -89 274 -91 7 -3 32 36 62 95 36 72 47 102
37 105 -7 3 -24 -10 -39 -28 -54 -68 -143 -90 -244 -60 -86 26 -89 34 -48 156
19 57 37 110 40 117 7 20 64 -14 76 -46 6 -15 9 -51 7 -80 -6 -97 22 -58 79
113 29 88 53 163 53 167 0 21 -28 4 -45 -28 -10 -20 -30 -44 -43 -55 -28 -21
-102 -27 -102 -7 0 7 17 63 37 126 43 129 35 125 150 72 75 -34 96 -64 101
-142 3 -36 9 -57 15 -55 12 4 74 184 66 190 -6 5 -513 177 -521 177 -5 0 -8
-6 -8 -14z"/>
<path d="M12585 10631 c-3 -5 4 -16 15 -24 11 -7 25 -28 31 -45 10 -28 2 -47
-106 -262 -125 -249 -136 -262 -194 -242 -20 7 -33 7 -37 1 -8 -13 -16 -7 99
-69 111 -59 152 -62 92 -6 -29 28 -35 40 -30 58 17 55 200 407 204 391 2 -10
34 -162 72 -337 61 -283 79 -351 92 -335 2 2 64 121 137 264 73 143 140 268
148 278 12 13 27 17 56 15 21 -2 41 2 43 7 3 10 -176 105 -197 105 -18 0 -11
-18 20 -48 36 -37 35 -42 -52 -216 -54 -108 -66 -126 -71 -105 -3 13 -27 125
-52 248 -25 124 -46 225 -48 226 -17 12 -202 105 -208 105 -4 0 -10 -4 -14 -9z"/>
<path d="M8160 10429 c-135 -78 -251 -147 -259 -155 -12 -11 -7 -24 29 -88 53
-92 71 -98 63 -22 -8 76 1 102 49 136 22 17 44 30 48 30 9 0 274 -455 284
-486 5 -17 -1 -28 -24 -47 -28 -24 -39 -47 -23 -47 16 0 296 166 300 178 9 21
-2 23 -33 7 -37 -19 -48 -19 -66 3 -21 23 -278 468 -278 480 0 5 23 19 51 31
58 25 87 20 145 -24 37 -28 59 -32 50 -9 -7 18 -86 154 -89 154 -2 0 -113 -64
-247 -141z"/>
<path d="M13363 10192 c-28 -4 -63 -47 -63 -77 0 -27 36 -75 56 -75 26 0 14
-28 -21 -50 -22 -14 -53 -22 -86 -23 -29 -1 -54 -7 -56 -13 -10 -29 123 -32
184 -5 53 25 103 91 103 138 0 27 -23 93 -33 93 -1 0 -16 4 -32 8 -17 4 -40 6
-52 4z"/>
<path d="M7610 10031 c-54 -17 -113 -54 -243 -156 -75 -58 -139 -110 -143
-116 -12 -20 6 -22 39 -4 23 12 39 15 50 9 14 -8 174 -206 305 -377 51 -67 52
-69 37 -98 -9 -16 -20 -29 -25 -29 -6 0 -10 -7 -10 -15 0 -8 5 -15 10 -15 6 0
75 52 155 115 195 155 236 211 243 335 5 99 -20 169 -89 244 -71 77 -151 116
-238 115 -36 0 -77 -4 -91 -8z m45 -110 c97 -44 222 -201 246 -306 11 -48 10
-59 -6 -95 -20 -43 -66 -84 -89 -78 -8 2 -85 93 -171 203 -87 110 -164 208
-172 217 -14 15 -11 20 33 48 56 35 100 38 159 11z"/>
<path d="M13604 9911 c-23 -10 -54 -36 -70 -57 -26 -34 -29 -45 -29 -118 0
-70 5 -93 37 -171 48 -119 54 -154 34 -193 -17 -33 -70 -57 -102 -46 -102 37
-147 172 -96 287 19 42 19 57 2 57 -14 0 -171 -190 -165 -200 3 -5 18 -7 33
-4 34 6 42 0 75 -58 36 -62 107 -123 162 -138 102 -29 204 10 244 92 29 61 27
121 -10 220 -75 205 -79 233 -36 263 53 37 124 5 158 -69 23 -50 24 -100 4
-156 -31 -89 -7 -81 78 25 65 81 80 118 37 95 -30 -16 -35 -13 -65 45 -62 123
-183 175 -291 126z"/>
<path d="M7043 9583 c-81 -94 -86 -101 -78 -113 5 -8 15 -4 31 10 26 26 67 29
92 8 117 -99 221 -192 218 -195 -2 -3 -103 0 -224 6 -122 6 -233 11 -249 11
-23 0 -43 -17 -107 -91 -57 -66 -75 -94 -67 -102 8 -8 16 -6 29 6 10 9 32 20
50 23 29 6 42 -3 179 -122 269 -234 274 -240 237 -292 -14 -21 -11 -47 5 -40
4 2 43 43 85 92 52 59 74 92 67 99 -6 6 -20 1 -41 -17 -36 -29 -42 -31 -73
-14 -17 9 -285 236 -332 281 -6 6 47 7 150 3 515 -19 545 -19 545 -5 0 8 -102
102 -225 209 -138 118 -228 204 -232 218 -3 13 0 35 6 48 30 67 5 57 -66 -23z"/>
<path d="M3358 9522 c-110 -99 -180 -133 -458 -220 -124 -39 -288 -97 -365
-128 l-140 -58 -171 -1 -171 0 -18 -50 c-9 -27 -38 -81 -63 -119 -40 -61 -58
-77 -149 -135 -58 -36 -165 -108 -239 -159 -139 -96 -260 -162 -329 -181 -55
-15 -132 -13 -180 4 -22 8 -43 15 -47 15 -5 0 -8 -26 -8 -58 0 -75 -30 -193
-68 -268 -62 -124 -286 -491 -320 -527 -48 -50 -144 -114 -194 -129 -29 -8
-38 -16 -34 -27 3 -9 14 -41 25 -71 36 -97 29 -171 -33 -360 -29 -91 -66 -219
-80 -285 -59 -264 -75 -323 -106 -387 -42 -88 -91 -143 -154 -175 -28 -14 -53
-27 -55 -29 -2 -2 14 -25 36 -51 59 -71 120 -168 142 -229 12 -29 43 -147 71
-261 28 -115 71 -277 97 -362 43 -146 45 -160 41 -245 -4 -66 -12 -108 -30
-153 -18 -44 -22 -63 -13 -63 24 0 170 -79 208 -112 23 -20 75 -97 132 -197
52 -90 95 -167 95 -170 0 -3 -26 -16 -58 -29 -107 -41 -106 -35 -19 -153 103
-142 324 -387 454 -505 541 -489 1182 -776 1928 -865 163 -20 587 -17 750 4
321 43 643 130 929 253 248 106 500 257 726 434 134 105 411 384 516 520 85
110 214 297 214 311 0 4 -9 11 -21 14 -11 4 -40 16 -64 26 l-43 19 62 93 c35
50 80 124 101 162 71 129 223 255 308 255 33 0 34 6 3 51 -34 50 -62 139 -76
239 -12 84 -11 87 39 328 78 368 115 468 225 609 31 39 56 74 56 77 0 3 -17
13 -37 21 -129 54 -194 171 -252 452 -17 83 -50 216 -73 295 -37 129 -41 153
-41 248 1 96 8 132 38 202 5 13 2 19 -11 23 -101 31 -228 140 -283 245 -19 36
-94 166 -168 289 -147 247 -179 327 -190 463 -4 59 -9 78 -19 74 -129 -49
-260 -21 -437 93 -73 48 -126 95 -258 234 -183 191 -238 270 -266 384 -10 37
-19 70 -20 72 -1 2 -18 -4 -37 -13 -96 -45 -225 -44 -417 4 -142 36 -257 55
-464 75 -144 14 -167 19 -230 50 -38 19 -101 60 -139 92 -111 94 -99 90 -148
45z m10 -114 c-90 -129 -191 -183 -551 -293 -287 -89 -353 -114 -422 -161 -43
-30 -37 -23 38 50 48 47 101 93 116 101 16 8 165 60 332 115 308 103 410 148
488 217 20 18 37 32 39 33 2 0 -16 -28 -40 -62z m248 -90 c52 -24 89 -32 245
-49 264 -29 415 -56 476 -85 69 -33 182 -140 218 -205 l29 -54 -36 38 c-65 68
-252 135 -567 202 -264 56 -385 105 -485 196 -83 76 -89 100 -9 38 37 -29 96
-65 129 -81z m-158 23 c102 -96 244 -153 537 -215 204 -44 346 -86 435 -131
72 -36 140 -102 140 -136 0 -18 4 -20 33 -12 17 4 57 8 87 7 90 0 161 -46 315
-200 165 -166 273 -239 425 -289 57 -19 159 -25 220 -12 l35 7 -9 -77 c-7 -61
-5 -95 7 -156 14 -71 32 -106 169 -340 182 -313 218 -390 218 -467 -1 -30 -7
-66 -15 -80 -21 -37 -18 -50 11 -50 48 0 91 -37 123 -103 38 -81 85 -246 122
-432 37 -188 53 -245 89 -314 44 -87 136 -167 212 -186 27 -7 27 -7 -20 -32
-99 -52 -166 -144 -196 -268 -8 -33 -20 -148 -26 -255 -6 -107 -18 -228 -25
-269 -26 -132 -101 -261 -152 -261 -23 0 -962 355 -976 369 -4 4 9 63 28 132
104 357 101 739 -7 1078 -132 415 -385 746 -764 1001 -289 195 -526 293 -843
350 -106 19 -118 23 -163 61 l-48 40 -46 -40 c-45 -40 -56 -44 -159 -56 -264
-33 -655 -204 -920 -404 -141 -106 -327 -300 -418 -438 -299 -450 -378 -988
-236 -1608 16 -71 32 -137 34 -145 3 -11 -8 -20 -38 -31 -40 -15 -398 -164
-734 -305 -84 -35 -162 -64 -173 -64 -53 0 -112 76 -159 207 -16 43 -53 187
-81 319 -29 131 -59 259 -67 284 -37 111 -127 237 -217 301 -21 16 -33 29 -25
29 27 1 110 71 156 133 77 104 109 185 179 452 116 441 168 548 280 585 32 11
33 11 18 45 -20 49 -17 112 9 175 13 30 81 152 151 270 69 118 134 240 143
270 11 36 17 91 18 161 l0 105 49 -8 c99 -15 277 27 394 94 31 18 119 74 195
125 230 155 363 207 461 182 26 -6 48 -10 49 -8 2 2 14 28 27 58 35 77 97 136
183 176 40 19 169 63 287 100 408 126 455 147 560 256 36 36 65 67 65 68 1 0
24 -21 53 -48z m1413 -446 c52 -18 127 -86 232 -209 71 -83 168 -158 285 -219
75 -39 120 -55 207 -73 l60 -13 -95 3 c-80 2 -106 7 -166 33 -119 50 -229 131
-369 270 -151 149 -236 202 -329 204 l-51 1 40 14 c46 16 120 11 186 -11z
m-2803 -134 c-73 -24 -184 -84 -309 -168 -284 -191 -420 -243 -575 -218 l-49
8 75 13 c41 7 95 20 120 28 65 24 185 91 260 146 177 129 231 159 325 179 159
34 245 41 153 12z m3706 -576 c15 -38 80 -160 145 -270 66 -110 128 -218 139
-240 21 -40 42 -162 42 -238 l0 -42 -33 75 c-38 85 -88 176 -225 404 -52 88
-103 186 -114 218 -18 61 -24 168 -11 243 l6 40 13 -60 c6 -33 24 -91 38 -130z
m-4670 107 c7 -48 -7 -150 -30 -219 -9 -26 -68 -135 -132 -242 -63 -108 -130
-227 -148 -266 l-33 -70 -1 101 0 101 111 184 c61 101 124 209 139 239 32 64
70 181 70 219 1 37 16 8 24 -47z m2116 -333 c-8 -5 -46 -26 -85 -46 -38 -20
-95 -53 -127 -74 l-56 -39 -11 32 c-10 28 -15 68 -8 68 1 0 63 16 137 35 146
37 175 42 150 24z m550 -28 c183 -46 179 -43 160 -113 l-10 -36 -50 33 c-28
19 -93 57 -145 85 -133 72 -129 75 45 31z m-221 -95 c159 -78 201 -107 278
-190 103 -110 146 -224 159 -428 7 -118 24 -147 24 -43 0 49 3 65 14 65 14 0
14 -61 0 -122 -5 -21 0 -32 21 -52 30 -28 27 -66 -4 -66 -10 0 -24 -6 -30 -14
-10 -12 -16 -10 -39 11 -26 24 -26 28 -28 146 -1 150 -27 266 -86 387 -82 165
-255 301 -406 316 -52 6 -73 3 -137 -21 -192 -70 -346 -219 -406 -392 -34 -99
-40 -143 -44 -316 -4 -156 -6 -171 -31 -227 l-27 -60 -142 0 -142 0 -7 50 c-8
61 3 177 18 188 6 5 33 16 60 25 l49 15 -6 -48 c-7 -60 -30 -106 -57 -115 -58
-18 -35 -90 26 -83 19 2 34 1 34 -3 0 -4 17 -5 38 -2 39 6 82 37 82 60 0 8 11
13 28 13 15 0 33 5 40 12 17 17 15 70 -5 98 -11 15 -16 39 -14 66 2 32 -3 51
-20 73 -22 30 -22 31 -4 51 10 11 22 20 27 20 4 0 8 -36 8 -80 0 -47 4 -80 10
-80 6 0 10 26 10 59 0 167 45 333 120 439 69 98 150 161 315 242 77 38 141 70
142 70 2 0 61 -29 132 -64z m-21 -40 c89 -45 155 -142 203 -296 19 -59 24 -97
23 -180 0 -113 -20 -191 -71 -278 -21 -37 -27 -41 -40 -30 -9 7 -24 32 -34 54
-17 38 -18 55 -9 199 11 164 8 195 -15 195 -8 0 -22 16 -31 35 -9 20 -26 43
-38 53 -13 11 -20 26 -18 40 3 16 -7 33 -33 58 -20 19 -42 34 -48 34 -7 0 -29
-14 -50 -31 -29 -24 -38 -38 -36 -58 2 -16 -10 -46 -29 -75 -18 -28 -32 -56
-32 -63 0 -7 -7 -13 -15 -13 -31 0 -44 -57 -23 -107 12 -31 11 -63 -3 -77 -13
-14 -11 -46 7 -99 19 -57 14 -81 -25 -131 l-30 -38 -29 46 c-53 83 -77 177
-77 301 0 119 12 169 67 279 38 75 128 166 188 188 68 25 141 23 198 -6z
m-803 -110 l49 -93 -34 -76 c-19 -42 -38 -76 -41 -77 -7 0 -154 260 -154 273
0 10 95 64 115 66 10 1 34 -34 65 -93z m1547 51 l57 -32 -97 -164 -96 -163
-23 73 -23 74 58 122 c31 67 59 122 62 122 3 1 31 -14 62 -32z m-1114 -39
c-68 -108 -91 -169 -109 -288 -19 -133 12 -284 81 -393 l29 -47 -62 -70 -62
-70 -97 0 -97 0 22 48 c18 40 22 74 28 237 11 283 45 380 185 523 80 81 109
103 82 60z m576 -38 c114 -123 186 -327 186 -525 0 -82 -3 -94 -28 -131 l-28
-41 -25 19 c-18 14 -33 17 -53 12 -26 -6 -26 -7 -11 -30 8 -13 15 -33 15 -44
0 -11 7 -36 14 -55 13 -30 13 -35 1 -35 -8 0 -19 10 -26 23 -6 12 -31 43 -56
68 l-45 46 40 84 c58 120 78 224 64 330 -14 106 -53 230 -91 292 -17 26 -27
47 -22 47 5 0 34 -27 65 -60z m-1176 -167 c99 -149 111 -171 104 -197 -7 -27
-13 -20 -130 147 -67 96 -122 179 -122 185 0 8 22 28 36 32 1 0 51 -75 112
-167z m1810 -2 c-50 -75 -114 -172 -142 -215 l-51 -80 -8 30 c-8 28 2 47 118
227 121 187 128 195 150 185 23 -10 22 -12 -67 -147z m-1903 -111 c77 -105
146 -199 154 -210 12 -18 10 -21 -20 -34 -88 -36 -87 -37 -149 29 -131 140
-261 288 -258 296 3 10 120 109 128 108 3 0 68 -85 145 -189z m2165 108 l43
-37 -46 -53 c-26 -29 -103 -111 -171 -183 -118 -124 -125 -129 -143 -113 -10
9 -31 21 -47 27 -20 8 -25 15 -19 24 270 352 306 396 323 384 9 -7 36 -29 60
-49z m-1864 -36 c-29 -82 -49 -322 -27 -322 5 0 11 5 13 12 3 7 12 9 22 5 12
-5 16 -15 14 -34 -2 -22 -9 -29 -30 -31 -33 -4 -33 -5 -12 -37 25 -38 -2 -144
-40 -158 -12 -5 -13 -1 -1 26 9 22 10 47 5 82 -4 28 -6 63 -3 79 8 41 -18 30
-34 -15 l-12 -34 0 36 c-2 72 52 300 91 392 25 57 34 57 14 -1z m-472 -258
c163 -154 186 -180 186 -207 l0 -31 -27 25 c-16 14 -100 88 -188 164 -229 197
-212 180 -190 205 10 11 22 20 26 20 4 0 91 -79 193 -176z m2484 154 c7 -10
-35 -54 -165 -173 -96 -88 -197 -180 -224 -204 l-50 -44 3 29 c2 24 42 65 208
217 113 103 208 187 211 187 4 0 11 -6 17 -12z m-658 -90 c7 -40 18 -86 25
-103 7 -16 16 -48 20 -70 8 -50 41 -125 54 -125 15 0 42 -31 36 -41 -10 -15
-34 -10 -53 9 -10 10 -27 43 -36 73 -18 53 -32 79 -45 79 -8 0 -5 -166 4 -179
3 -7 0 -8 -9 -5 -23 9 -35 65 -25 115 4 24 8 47 9 50 0 3 -12 11 -26 17 -36
17 -30 56 10 60 l29 4 -6 94 c-3 52 -4 94 -2 94 2 0 9 -33 15 -72z m-629 52
c21 -12 49 -60 49 -85 0 -12 -9 -15 -37 -13 -32 3 -38 0 -38 -17 0 -17 6 -20
39 -19 38 1 38 1 33 -32 -14 -82 -61 -134 -122 -134 -40 0 -59 15 -98 72 -35
54 -36 59 -21 154 2 18 14 44 25 58 18 23 27 26 85 26 36 0 74 -5 85 -10z
m-2860 -99 c-26 -50 -113 -321 -147 -456 -45 -179 -75 -268 -122 -359 -47 -92
-117 -173 -175 -203 l-32 -16 36 40 c74 81 121 192 154 355 39 196 113 465
146 529 18 35 147 164 156 156 2 -3 -5 -23 -16 -46z m1610 -162 c248 -191 257
-201 227 -248 -9 -15 -9 -26 0 -46 11 -23 10 -26 -1 -22 -7 3 -140 88 -295
189 -173 112 -280 188 -277 196 10 27 89 122 98 119 6 -2 118 -86 248 -188z
m2694 110 l45 -62 -312 -187 c-172 -104 -317 -186 -321 -183 -5 3 -4 10 2 16
15 15 14 50 -1 65 -10 10 -8 15 7 26 11 8 135 97 275 200 140 102 256 186 258
186 1 0 22 -28 47 -61z m1411 -174 c35 -53 76 -188 113 -380 33 -173 85 -300
158 -385 19 -22 32 -40 28 -40 -25 0 -123 61 -156 98 -63 67 -96 150 -128 319
-30 155 -89 380 -122 468 -10 28 -19 55 -19 60 1 14 85 -80 126 -140z m-4201
-166 c198 -114 313 -185 307 -191 -6 -6 -130 50 -334 149 l-325 159 16 32 c8
18 16 32 17 32 1 0 144 -82 319 -181z m2920 140 l16 -30 -357 -174 c-197 -97
-362 -174 -367 -172 -26 8 59 65 353 231 179 101 328 182 333 179 4 -2 14 -18
22 -34z m-1500 -57 c-10 -42 -65 -112 -101 -129 -49 -24 -103 -5 -147 50 -43
52 -60 84 -52 97 11 19 35 10 86 -30 28 -22 56 -40 63 -40 14 0 48 23 93 61
40 34 68 29 58 -9z m81 -50 c1 -26 11 -74 23 -107 26 -73 26 -101 2 -142 -24
-39 -49 -47 -98 -34 -54 15 -95 14 -121 -5 -26 -18 -29 -13 -34 59 -3 44 -2
47 22 47 58 0 128 80 158 181 12 41 20 55 32 52 10 -3 15 -18 16 -51z m-397
-17 c16 -36 42 -81 57 -100 25 -34 26 -35 6 -35 -25 0 -41 -26 -50 -83 -5 -29
-13 -43 -26 -45 -30 -6 -67 8 -92 35 -36 39 -33 100 12 193 32 68 51 100 59
100 2 0 17 -29 34 -65z m489 5 c53 -53 75 -102 80 -175 3 -54 1 -62 -21 -84
-15 -13 -47 -27 -74 -32 -26 -5 -49 -14 -51 -19 -6 -16 -22 -12 -22 5 0 8 5
15 10 15 6 0 19 15 30 33 26 42 26 107 0 180 -24 67 -26 117 -6 117 7 0 32
-18 54 -40z m-609 -40 c-38 -74 -44 -151 -16 -193 9 -15 17 -28 17 -30 0 -9
-76 -16 -99 -10 -23 6 -24 8 -18 85 7 106 36 165 96 195 25 13 46 21 48 19 2
-1 -11 -31 -28 -66z m-988 -154 l364 -160 -3 -38 c-2 -21 -7 -36 -11 -34 -3 2
-181 61 -396 131 -214 70 -393 130 -398 134 -6 6 22 105 38 131 7 11 -27 25
406 -164z m3002 157 c3 -10 14 -41 26 -69 l20 -51 -192 -63 c-106 -34 -295
-95 -420 -136 -125 -41 -230 -74 -233 -74 -2 0 -4 16 -4 35 0 27 5 38 23 45
12 5 186 81 387 169 201 87 370 160 376 160 7 1 14 -7 17 -16z m-2130 -23 c-5
-19 -14 -20 -264 -20 -252 0 -259 1 -259 20 0 19 7 20 264 20 259 0 264 0 259
-20z m373 -131 c9 -7 14 -31 14 -64 0 -46 -4 -57 -26 -74 -35 -27 -38 -27 -73
9 -26 28 -28 34 -20 75 14 73 24 85 60 75 17 -5 37 -14 45 -21z m-396 -29 l0
-30 -239 0 c-132 0 -246 3 -255 6 -16 6 -22 35 -9 47 3 4 118 7 255 7 l248 0
0 -30z m1348 6 c2 -10 -2 -22 -10 -27 -13 -9 -428 -13 -428 -4 0 2 5 16 12 30
l11 25 206 -2 c192 -3 206 -4 209 -22z m-2258 -181 c422 -113 431 -115 414
-121 -6 -3 -198 34 -428 81 -229 47 -418 85 -420 85 -4 0 1 30 10 57 2 7 9 11
16 8 7 -2 191 -52 408 -110z m910 70 l0 -35 -230 0 -230 0 0 25 c0 13 8 29 18
34 10 6 104 11 230 11 l212 0 0 -35z m1281 25 c11 -6 19 -21 19 -35 l0 -25
-220 0 -220 0 0 35 0 35 201 0 c119 0 208 -4 220 -10z m969 -32 c0 -9 -8 -19
-17 -22 -10 -3 -205 -44 -433 -91 -228 -47 -423 -88 -432 -91 -11 -3 -18 0
-18 8 0 18 882 239 892 224 4 -6 8 -19 8 -28z m-2090 12 c0 -5 -9 -10 -20 -10
-32 0 -102 -32 -92 -42 5 -5 20 -5 36 2 44 16 96 13 103 -7 3 -10 16 -32 29
-49 l23 -31 -32 -31 c-36 -34 -129 -77 -150 -69 -20 8 -47 70 -47 110 0 19 3
55 6 80 6 44 7 45 38 40 24 -4 66 3 104 16 1 1 2 -3 2 -9z m680 -82 c0 -73
-13 -143 -29 -152 -17 -11 -107 24 -144 55 l-38 31 43 47 c23 25 45 47 48 49
4 1 23 -9 43 -22 24 -16 37 -21 37 -13 0 7 -5 18 -11 24 -8 8 -5 17 10 32 34
34 41 26 41 -51z m-1044 -215 c-7 -307 -11 -364 -27 -374 -9 -5 -13 -33 -12
-96 l1 -88 -42 -1 c-23 0 -51 -6 -63 -12 -21 -12 -21 -13 24 -79 25 -38 67
-93 94 -124 l48 -57 -43 -11 c-58 -14 -93 -44 -107 -92 l-12 -39 -54 0 -53 0
0 288 c0 159 -3 431 -7 605 l-6 317 132 0 132 0 -5 -237z m194 175 c0 -94 51
-164 99 -138 32 17 53 12 49 -11 -2 -14 -53 -54 -160 -124 l-158 -105 0 220 0
220 85 0 85 0 0 -62z m1320 -480 c0 -299 3 -567 6 -595 l7 -53 -62 0 -61 0 0
31 c0 41 -45 85 -102 100 l-44 12 42 43 c24 23 57 71 75 106 17 35 38 70 45
79 22 24 -8 44 -68 44 l-48 0 0 82 c0 66 -3 84 -16 91 -21 12 -23 87 -3 122 8
16 12 55 11 107 -1 66 2 84 14 91 9 5 14 18 12 28 -3 14 -12 19 -36 19 l-32 0
0 117 0 118 130 0 130 0 0 -542z m-736 503 c9 -16 27 -43 42 -60 23 -27 25
-36 16 -56 -18 -40 -66 -58 -131 -50 -57 7 -82 7 -180 3 -48 -3 -56 0 -74 24
-17 23 -18 31 -8 56 7 18 23 33 36 36 13 3 27 15 30 26 8 25 22 25 47 3 29
-27 92 -19 147 16 25 17 49 31 53 31 4 0 14 -13 22 -29z m-1517 -111 c214 -33
403 -62 421 -65 29 -5 32 -9 32 -42 l0 -35 -62 6 c-35 3 -124 11 -198 16 -231
17 -623 50 -625 52 -1 2 0 31 3 66 4 52 7 62 23 62 10 0 193 -27 406 -60z
m3228 -11 c4 -33 6 -62 4 -63 -4 -4 -138 -14 -579 -46 -157 -11 -302 -22 -322
-24 -37 -4 -38 -3 -38 30 0 19 3 34 8 34 4 1 201 29 437 64 237 35 442 65 457
65 25 1 26 -2 33 -60z m-1627 -99 c-2 -15 -14 -26 -39 -34 -19 -7 -57 -29 -84
-49 -70 -54 -125 -51 -198 9 -30 25 -85 32 -104 13 -7 -7 -14 -1 -22 22 -13
37 -15 73 -3 67 79 -41 88 -43 212 -43 114 0 129 2 175 25 54 28 69 25 63 -10z
m-508 -20 c0 -12 7 -34 15 -50 14 -27 14 -30 -4 -40 -11 -5 -46 -14 -79 -18
-69 -10 -142 -60 -142 -98 0 -31 16 -38 42 -20 33 24 45 20 50 -16 7 -45 -7
-88 -39 -125 l-28 -33 -53 19 c-65 22 -100 54 -108 98 -12 63 7 85 175 198 86
57 159 105 164 105 4 0 7 -9 7 -20z m570 -64 c24 -21 53 -36 79 -41 22 -4 60
-16 83 -28 l43 -22 -50 -5 c-33 -3 -72 2 -118 15 -71 20 -79 19 -167 -19 -9
-4 -28 5 -49 22 l-33 27 58 42 c74 53 104 55 154 9z m-394 -16 c21 -16 45 -30
52 -30 22 0 2 -20 -21 -20 -11 0 -59 -12 -106 -26 -57 -17 -113 -27 -173 -29
-54 -1 -94 -7 -105 -16 -10 -7 -7 -1 7 15 33 37 71 56 112 56 37 0 106 29 145
60 34 26 42 25 89 -10z m-3094 -40 c62 -54 144 -179 167 -256 11 -33 40 -158
65 -277 51 -238 83 -345 126 -424 24 -45 25 -51 9 -42 -30 16 -140 158 -166
216 -13 29 -56 179 -94 334 -70 283 -100 369 -158 453 -17 24 -31 47 -31 51 0
10 34 -12 82 -55z m6427 14 c-71 -104 -98 -184 -170 -508 -38 -171 -78 -330
-90 -352 -11 -23 -36 -57 -55 -75 l-35 -34 25 45 c48 87 68 204 86 505 7 115
15 177 30 219 24 70 59 133 92 163 24 23 126 82 141 83 4 0 -6 -21 -24 -46z
m-4321 20 c130 -5 172 -9 172 -19 0 -10 -45 -14 -182 -19 -101 -4 -271 -11
-378 -17 -107 -5 -225 -9 -262 -9 l-68 0 0 38 0 37 272 -2 c150 -2 351 -6 446
-9z m2962 -35 l0 -42 -127 7 c-71 3 -261 10 -423 16 -358 13 -400 17 -400 36
0 11 50 14 303 17 166 1 380 3 475 5 l172 2 0 -41z m-1753 -66 c4 -10 -110
-108 -189 -161 l-47 -32 -7 35 c-11 61 1 120 32 159 34 42 69 47 126 16 37
-20 60 -13 33 10 -8 7 -15 17 -15 23 0 11 62 -35 67 -50z m489 -45 c20 -38 18
-43 -22 -88 -38 -42 -106 -70 -170 -70 -28 0 -35 6 -53 43 -25 52 -26 76 -5
121 14 27 24 35 54 40 21 3 52 3 69 0 30 -6 31 -5 31 27 l0 33 41 -39 c22 -22
47 -52 55 -67z m-281 62 c25 -9 25 -11 10 -39 -21 -41 -19 -109 4 -154 l19
-38 -76 3 c-87 3 -80 -7 -66 99 3 25 1 63 -5 84 -6 21 -8 42 -5 47 7 11 87 10
119 -2z m-491 -45 c-12 -29 -14 -55 -9 -100 5 -54 4 -63 -15 -80 -19 -17 -36
-20 -120 -18 -54 0 -103 4 -109 8 -7 4 -1 19 16 42 23 30 28 47 28 95 l0 58
50 1 c28 0 77 8 110 18 33 9 61 17 63 16 1 -1 -5 -19 -14 -40z m-754 -15 c0
-33 -4 -41 -22 -45 -51 -12 -832 -164 -834 -162 -4 4 -24 160 -22 163 2 1 197
20 433 42 237 22 433 40 438 41 4 1 7 -17 7 -39z m2164 4 c165 -19 369 -43
451 -52 l150 -17 -3 -55 c-2 -30 -6 -58 -10 -61 -6 -6 -144 18 -744 132 l-168
31 0 29 c0 16 5 29 11 29 6 0 147 -16 313 -36z m-1072 -53 c1 -53 -24 -89 -78
-115 -47 -23 -86 -24 -137 -4 l-39 15 64 45 c34 25 85 64 113 87 58 48 76 42
77 -28z m1163 -146 c215 -53 407 -101 429 -106 36 -10 38 -12 32 -42 -4 -17
-10 -35 -14 -39 -6 -6 -179 45 -779 228 -67 20 -83 28 -83 44 0 11 5 18 13 15
6 -2 188 -47 402 -100z m-2257 69 c-2 -11 -122 -55 -408 -149 -222 -74 -405
-133 -406 -132 -1 1 -6 18 -12 37 l-9 36 141 38 c78 21 263 70 411 111 149 40
274 73 278 74 5 0 7 -6 5 -15z m1572 2 c0 -26 -200 -99 -365 -132 -140 -28
-455 -26 -595 3 -148 31 -340 102 -340 124 0 12 27 11 35 -1 12 -19 102 -59
186 -82 79 -21 102 -22 404 -23 276 0 331 3 400 18 85 20 194 67 215 92 16 19
60 20 60 1z m-1215 -78 c135 -54 347 -98 470 -98 25 0 45 -4 45 -9 0 -5 -17
-23 -37 -40 -41 -33 -43 -33 -73 19 -7 13 -13 11 -40 -9 l-32 -23 -22 21 c-23
22 -51 27 -60 12 -4 -5 -20 4 -37 21 l-30 31 -22 -21 c-20 -18 -24 -19 -41 -6
-11 8 -33 14 -49 14 -19 0 -38 9 -53 25 -32 34 -59 32 -75 -7 -11 -27 -14 -29
-20 -12 -4 10 -8 41 -8 68 -1 42 1 47 17 41 9 -4 40 -16 67 -27z m1215 -18 c0
-39 -4 -52 -19 -60 -16 -8 -23 -6 -36 12 -13 19 -17 20 -25 9 -6 -10 -23 -14
-49 -13 -43 3 -111 -23 -111 -41 0 -6 -10 -1 -23 11 -23 22 -23 22 -44 3 -12
-11 -29 -18 -40 -15 -10 3 -34 -6 -55 -19 l-36 -25 -19 26 -20 27 -37 -28 -36
-28 -30 23 c-16 13 -29 26 -29 31 -1 4 26 7 58 7 91 0 277 35 397 76 60 20
116 40 124 45 26 15 30 10 30 -41z m511 -76 c129 -47 312 -114 406 -147 127
-46 173 -66 173 -78 0 -10 19 -24 53 -36 47 -19 52 -23 49 -48 -8 -75 -167
-348 -337 -580 -150 -205 -204 -262 -259 -270 -263 -41 -514 -126 -762 -256
l-132 -69 -5 28 c-4 17 -16 33 -31 40 -14 6 -34 29 -45 50 -25 49 -75 92 -107
92 -33 0 -30 21 6 42 32 18 69 86 70 126 0 20 5 22 50 22 l50 0 0 55 c0 48 -2
55 -20 55 -18 0 -19 5 -14 58 5 42 1 72 -13 115 l-20 57 299 0 298 0 30 33
c51 56 33 157 -28 157 -33 0 -33 14 0 24 47 16 89 102 58 121 -9 6 -16 495 -7
495 2 0 109 -39 238 -86z m-2091 -428 c-28 -28 -3 -74 55 -96 l30 -12 -43 -19
c-70 -30 -80 -100 -21 -160 l28 -29 296 0 c234 0 296 -3 291 -12 -25 -60 -38
-127 -33 -170 5 -43 4 -48 -13 -48 -17 0 -20 -7 -20 -55 l0 -55 49 0 48 0 6
-40 c6 -50 30 -87 68 -108 16 -10 29 -20 29 -23 0 -3 -18 -11 -40 -18 -42 -12
-64 -37 -76 -84 -3 -15 -22 -39 -40 -54 -19 -14 -34 -34 -34 -44 0 -11 -4 -19
-9 -19 -4 0 -55 20 -112 45 -216 95 -524 193 -719 230 -47 9 -98 21 -113 27
-84 32 -409 467 -517 693 -59 122 -59 120 35 159 72 29 80 35 80 59 -1 30 -46
10 605 265 l175 68 3 -245 c1 -156 -1 -248 -8 -255z m1454 417 c22 -77 14
-165 -18 -208 -15 -19 -15 -19 -9 3 3 12 1 22 -5 22 -6 0 -8 9 -5 20 3 11 1
20 -5 20 -6 0 -8 10 -5 21 4 15 2 20 -7 17 -7 -2 -20 -26 -28 -54 -8 -27 -16
-44 -17 -39 -2 6 -11 36 -20 67 -17 56 -17 57 5 88 21 30 68 59 97 60 6 0 14
-8 17 -17z m236 11 c0 -27 -82 -153 -125 -192 -63 -57 -143 -105 -126 -76 6
11 30 39 53 65 24 25 35 36 26 24 -22 -26 -23 -35 -3 -35 20 0 125 163 113
175 -11 12 -60 -24 -96 -71 l-37 -49 -3 39 c-4 42 17 73 73 107 28 18 125 28
125 13z m-1394 -30 c51 -24 74 -59 74 -111 0 -50 21 -107 53 -142 l22 -24 -25
13 c-46 23 -125 88 -153 127 -52 71 -95 142 -89 147 11 12 85 5 118 -10z m167
5 c12 -6 34 -25 49 -42 25 -30 25 -33 11 -61 -8 -16 -16 -52 -16 -79 l-1 -48
-18 23 c-10 13 -20 31 -24 41 -3 11 -12 16 -20 13 -8 -3 -14 -1 -14 4 0 6 -4
10 -10 10 -19 0 -10 -36 21 -85 18 -28 24 -43 14 -35 -30 25 -65 111 -65 161
0 104 17 126 73 98z m583 -94 c84 -81 76 -195 -17 -249 l-33 -20 22 28 c26 34
29 61 6 52 -12 -5 -15 -2 -10 11 4 9 10 36 13 60 5 36 3 43 -11 43 -12 0 -16
-10 -16 -42 -1 -24 -8 -56 -16 -73 -8 -16 -12 -22 -10 -13 3 9 8 44 12 77 6
53 4 61 -10 61 -13 0 -16 -11 -17 -52 -1 -90 -18 -103 -18 -15 -1 111 -21 98
-22 -15 -1 -90 -16 -94 -18 -5 -1 54 -19 46 -23 -10 l-3 -48 -14 43 c-8 23
-20 42 -27 42 -11 0 -11 -8 0 -42 8 -24 17 -51 21 -60 12 -30 -1 -20 -28 21
-14 21 -30 54 -35 72 -4 19 -12 32 -18 29 -12 -7 -6 -46 12 -82 20 -39 8 -35
-16 5 -22 35 -26 87 -9 120 6 12 45 54 87 93 l77 72 40 -32 c22 -17 58 -49 81
-71z m224 38 c53 -65 64 -150 24 -199 -15 -18 -15 -18 -5 3 13 26 15 113 2
113 -5 0 -11 -23 -13 -50 -3 -28 -13 -59 -22 -69 -9 -10 -14 -25 -10 -34 5
-13 -20 -37 -39 -37 -3 0 -2 29 0 64 4 41 2 66 -6 70 -7 5 -11 -8 -11 -41 -1
-45 -2 -47 -16 -28 -8 11 -22 43 -30 72 -13 46 -13 55 0 87 16 39 61 86 82 86
7 0 26 -17 44 -37z m-584 -15 c40 -57 40 -123 0 -206 -32 -67 -48 -69 -64 -8
-6 20 -15 31 -25 30 -10 -1 -17 4 -17 12 0 8 -7 14 -16 14 -11 0 -14 -6 -10
-22 4 -15 1 -12 -9 7 -30 63 -9 140 54 192 38 32 55 28 87 -19z m892 -188 c36
-22 43 -55 12 -65 -16 -5 -18 -10 -10 -26 28 -52 -41 -52 -133 -1 l-67 38 67
36 c81 43 88 44 131 18z m-1167 -34 c51 -27 119 -50 202 -66 51 -10 57 -13 45
-28 -48 -58 -168 -96 -168 -52 0 16 -7 20 -30 20 -31 0 -39 17 -18 38 21 21 0
25 -42 8 -61 -24 -120 -19 -120 10 0 8 -6 24 -12 35 -11 18 -10 23 11 40 31
26 79 24 132 -5z m-178 -15 c-2 -10 3 -25 11 -34 9 -8 16 -22 16 -30 0 -27 27
-38 82 -35 45 3 55 0 63 -17 6 -11 22 -22 35 -23 13 -2 30 -13 38 -23 7 -10
25 -19 40 -19 53 -1 -7 -23 -63 -24 -66 -1 -89 16 -82 60 l5 31 -69 -5 c-53
-4 -74 -1 -94 12 -31 21 -33 63 -4 100 24 31 29 32 22 7z m1139 -19 c2 -4 20
-21 40 -36 42 -32 41 -46 -3 -46 -22 0 -29 -5 -29 -20 0 -28 -60 -27 -125 4
-46 21 -84 52 -74 60 4 3 157 42 176 45 6 0 13 -3 15 -7z m-204 -49 c-2 -5 3
-23 11 -41 18 -42 2 -66 -35 -51 -33 12 -34 12 -34 -6 0 -25 -44 -47 -71 -36
-28 11 -77 56 -100 90 l-15 24 -29 -40 c-57 -78 -125 -105 -125 -48 0 28 -21
33 -40 10 -31 -38 -68 -2 -54 53 l9 37 225 5 c124 3 233 7 243 8 9 1 16 -1 15
-5z m2248 -124 c132 -50 247 -95 256 -100 23 -13 24 -97 2 -183 -26 -101 -132
-311 -219 -433 -1 -3 -84 20 -122 32 -8 3 8 24 38 52 53 50 75 86 129 216 23
56 43 87 73 112 l40 35 -48 21 c-42 19 -55 20 -94 11 -25 -6 -46 -10 -46 -9 0
1 -10 23 -23 50 -15 33 -28 47 -42 47 -32 0 -86 -26 -102 -49 -15 -21 -15 -21
-42 8 -32 34 -79 56 -100 48 -11 -4 -13 -16 -10 -39 3 -18 -4 -73 -15 -121
-29 -122 -28 -217 4 -285 21 -46 22 -53 7 -48 -9 3 -61 10 -114 17 l-98 11 0
42 c0 77 54 232 142 410 47 96 135 246 144 246 1 0 109 -41 240 -91z m-3066
27 c0 -61 93 -84 189 -47 49 18 50 18 68 -1 27 -30 69 -49 113 -51 31 -1 37
-4 28 -14 -8 -10 -69 -13 -264 -13 -219 0 -254 2 -254 15 0 11 12 15 50 15
l50 0 0 60 c0 33 4 60 10 60 6 0 10 -11 10 -24z m1220 -96 c38 0 50 -4 50 -15
0 -13 -35 -15 -253 -15 -236 0 -255 1 -271 19 -16 18 -16 18 16 12 76 -16 168
23 168 71 0 18 2 18 31 -3 64 -45 176 -32 196 23 6 18 9 9 11 -34 l3 -58 49 0z
m-520 -12 c118 -116 174 -235 156 -331 l-7 -37 -278 0 -279 0 -6 23 c-28 107
49 253 205 386 l83 70 25 -19 c14 -10 60 -51 101 -92z m-2313 35 c58 -84 136
-233 182 -348 40 -103 70 -219 58 -231 -3 -4 -48 -13 -99 -20 -51 -8 -101 -17
-110 -20 -16 -5 -16 -2 3 31 35 58 36 147 5 297 -14 70 -26 139 -26 153 0 15
-6 25 -15 25 -19 0 -92 -66 -100 -91 -6 -17 -9 -16 -32 11 -29 35 -72 60 -103
60 -15 0 -26 -12 -40 -42 -11 -24 -20 -51 -20 -60 0 -14 -7 -16 -47 -12 -27 3
-59 2 -71 -3 l-24 -9 27 -32 c15 -18 42 -75 61 -127 19 -53 43 -113 53 -134
20 -38 83 -101 101 -101 6 0 10 -4 10 -8 0 -9 -66 -32 -91 -32 -29 0 -133 191
-172 315 -27 85 -44 231 -29 253 9 13 397 179 423 181 9 1 34 -25 56 -56z
m1563 17 c0 -5 -20 -10 -45 -10 l-45 0 0 -46 0 -45 251 7 251 7 -16 -25 -17
-26 -305 -7 c-295 -7 -307 -7 -332 12 -48 35 -38 96 17 108 16 3 35 13 42 21
14 17 199 21 199 4z m1449 -4 c7 -8 26 -18 42 -21 52 -12 64 -61 24 -100 l-24
-25 -308 0 -309 0 -18 31 -18 31 251 -7 252 -8 -3 44 -3 44 -42 3 c-81 6 -43
22 51 22 69 0 97 -4 105 -14z m1467 -223 c8 -18 18 -33 23 -33 5 0 20 19 33
42 27 50 69 71 93 47 9 -8 18 -39 22 -67 6 -58 17 -63 52 -27 17 18 34 25 62
25 21 0 39 -2 39 -5 0 -3 -13 -23 -29 -45 -16 -22 -44 -79 -62 -128 -27 -69
-45 -98 -89 -144 -59 -60 -90 -74 -145 -64 -58 11 -114 103 -115 189 0 21 11
93 25 159 14 66 25 123 25 126 0 15 54 -47 66 -75z m-4637 -9 c11 -14 23 -34
26 -45 11 -33 41 -23 53 19 7 21 22 48 34 60 l23 21 29 -148 c31 -158 30 -203
-4 -259 -42 -68 -134 -84 -204 -35 -49 35 -77 81 -112 188 -14 44 -35 95 -45
113 l-18 32 27 -6 c15 -4 37 -13 49 -20 31 -20 33 -18 33 21 0 19 7 53 16 75
16 39 16 39 44 25 16 -8 37 -26 49 -41z m5159 -53 c-5 -122 -4 -120 -130 -313
-65 -99 -90 -122 -111 -102 -3 3 17 40 45 82 83 128 178 344 178 407 0 20 8
35 18 35 2 0 3 -49 0 -109z m-5483 -133 c19 -56 100 -221 136 -275 l21 -33
-23 -9 c-22 -8 -29 0 -93 103 -38 61 -75 125 -82 143 -15 34 -19 176 -7 234 6
31 8 28 19 -38 6 -39 20 -95 29 -125z m2985 -53 l0 -25 -320 0 -320 0 0 25 0
25 320 0 320 0 0 -25z m1631 -145 c268 -27 488 -75 685 -150 59 -22 109 -42
112 -44 15 -15 -266 -373 -403 -514 l-90 -93 -65 15 c-153 35 -328 49 -545 43
-216 -5 -311 -17 -493 -62 -252 -61 -507 -186 -678 -332 l-51 -43 -394 0 -394
0 -75 56 c-463 344 -1021 462 -1673 352 l-128 -21 -56 54 c-80 78 -276 301
-346 394 -33 44 -65 86 -70 93 -12 16 56 46 251 111 257 86 471 122 731 125
178 1 371 -10 371 -22 -1 -4 -46 -37 -101 -74 l-100 -67 -117 -6 c-117 -7
-285 -28 -374 -47 -41 -8 -48 -13 -48 -34 0 -21 4 -24 39 -24 l38 0 7 -77 c10
-129 10 -133 -24 -144 -16 -6 -30 -14 -30 -18 0 -4 22 -29 50 -56 48 -47 51
-48 87 -39 34 8 38 13 41 45 3 31 9 38 47 57 52 25 55 22 55 -77 l0 -68 43
-17 c23 -9 46 -16 51 -16 5 0 5 101 1 225 l-7 225 57 0 57 0 -6 -122 c-4 -68
-9 -155 -12 -195 l-6 -71 47 -27 c25 -15 48 -26 50 -24 1 2 11 101 20 219 9
118 18 216 20 219 7 7 239 -20 248 -28 4 -4 5 -16 1 -25 -6 -15 -15 -17 -51
-12 -23 3 -63 9 -88 12 l-45 7 -2 -84 c-3 -121 -4 -134 -10 -144 -7 -11 -22
-185 -17 -185 2 -1 49 -7 104 -14 55 -7 102 -12 104 -10 2 2 -3 14 -12 27 -15
24 -15 25 24 42 23 11 41 27 44 39 13 55 25 158 20 166 -3 5 -34 11 -69 15
-61 7 -96 18 -85 29 2 3 41 -1 86 -8 l82 -13 16 68 c17 67 18 69 44 63 51 -12
246 -77 273 -90 l28 -14 -28 -56 c-21 -43 -33 -57 -54 -61 -33 -6 -34 -13 -12
-70 12 -31 21 -42 33 -39 9 3 28 8 42 11 l26 6 -43 -87 -43 -87 31 -44 c16
-24 33 -43 38 -41 10 4 150 282 150 298 0 6 -9 28 -20 50 -15 28 -25 38 -36
33 -14 -5 -15 -3 -4 18 7 13 14 25 15 27 3 3 144 -65 153 -73 2 -2 -31 -71
-72 -153 -42 -82 -76 -160 -75 -173 0 -13 8 -42 18 -63 l17 -40 71 135 c39 73
83 159 98 189 15 30 29 57 31 58 1 2 25 -9 53 -24 l51 -29 21 22 22 21 -49 31
c-27 17 -129 72 -227 121 -178 89 -403 172 -542 199 -57 12 -64 16 -145 102
-58 60 -80 89 -68 89 27 0 253 -48 333 -71 143 -41 265 -84 458 -160 l197 -79
361 0 360 0 108 61 c403 225 973 338 1462 289z m-1765 -136 c19 -9 37 -20 40
-25 3 -5 -96 -9 -227 -9 -212 0 -230 1 -218 16 23 28 51 33 212 33 127 1 166
-2 193 -15z m72 -86 c3 -17 -14 -18 -252 -18 -141 0 -256 2 -256 4 0 2 3 12 6
20 6 15 35 16 253 14 225 -3 246 -4 249 -20z m-2068 -106 l0 -68 -44 -21 c-24
-12 -47 -19 -50 -16 -3 4 -6 41 -6 84 l0 78 33 4 c72 9 67 13 67 -61z m2138
36 c3 -17 -17 -18 -317 -18 -315 0 -321 0 -321 20 0 20 5 20 317 18 293 -3
318 -4 321 -20z m-1679 -503 c142 -20 311 -63 417 -107 124 -51 350 -172 438
-234 l78 -56 -25 -22 c-33 -28 -47 -57 -47 -101 0 -102 100 -189 265 -229 81
-20 158 -59 186 -94 25 -32 24 -42 -5 -42 -17 0 -30 10 -44 34 -40 68 -136 96
-540 161 -182 29 -307 62 -398 106 -67 31 -159 107 -166 137 -5 18 -3 18 61 0
75 -20 201 -24 251 -6 19 6 71 33 116 60 45 26 87 48 93 48 6 0 11 7 11 15 0
18 -57 55 -85 55 -11 0 -32 14 -47 30 -21 24 -34 30 -66 30 -26 0 -42 5 -46
15 -3 9 -18 15 -36 15 -18 0 -33 6 -36 15 -4 8 -18 15 -34 15 -15 0 -35 9 -46
21 -15 17 -26 20 -55 15 -27 -4 -40 -2 -50 10 -9 11 -22 14 -44 10 -24 -5 -36
-1 -50 14 -22 25 -33 25 -58 3 -18 -17 -20 -17 -41 10 -19 23 -28 27 -49 21
-17 -4 -33 -1 -42 6 -13 11 -20 11 -39 0 -18 -9 -29 -9 -45 0 -12 6 -30 8 -41
5 -10 -3 -21 -1 -25 5 -9 14 -48 13 -63 -2 -7 -7 -28 -11 -47 -10 -19 2 -35
-1 -35 -5 0 -4 12 -39 27 -78 22 -56 41 -83 95 -137 74 -73 128 -100 249 -120
60 -10 69 -15 69 -33 0 -30 51 -106 96 -144 55 -46 204 -116 309 -145 50 -14
190 -39 311 -56 237 -32 362 -60 403 -88 l26 -17 -34 -3 c-46 -5 -266 24 -422
54 -431 83 -779 227 -1173 483 -228 149 -413 288 -399 302 9 8 261 46 353 53
101 7 364 -3 479 -19z m3434 -15 c76 -13 135 -26 130 -29 -4 -4 -39 -34 -78
-67 -400 -344 -927 -601 -1445 -704 -169 -34 -399 -63 -461 -58 l-44 3 42 23
c57 30 132 46 358 77 245 33 332 51 429 86 160 58 291 161 317 249 11 37 12
38 83 49 39 7 95 23 124 36 78 36 164 123 196 198 15 34 31 70 37 79 14 27 12
30 -23 27 -18 -1 -45 4 -60 11 -22 10 -34 11 -54 1 -14 -6 -30 -8 -36 -5 -5 4
-21 1 -34 -7 -20 -10 -28 -10 -49 1 -21 11 -27 11 -42 -3 -14 -12 -23 -13 -37
-5 -15 8 -23 5 -44 -15 -25 -25 -27 -25 -54 -10 -26 16 -29 16 -51 -5 -18 -17
-31 -21 -53 -16 -21 4 -34 1 -43 -9 -8 -11 -23 -14 -47 -10 -27 5 -39 1 -55
-16 -11 -11 -31 -21 -45 -21 -13 0 -27 -7 -30 -15 -4 -9 -19 -15 -39 -15 -20
0 -35 -6 -39 -15 -3 -9 -19 -15 -41 -15 -25 0 -44 -8 -62 -26 -15 -15 -42 -31
-62 -36 -38 -11 -81 -36 -81 -48 0 -4 17 -17 38 -27 20 -11 71 -40 112 -64 71
-42 78 -44 166 -47 64 -3 109 1 147 12 76 22 81 21 60 -14 -18 -32 -99 -93
-170 -129 -74 -37 -206 -69 -442 -106 -216 -34 -329 -58 -392 -83 -36 -14 -99
-71 -99 -88 0 -9 -11 -14 -31 -14 l-30 0 20 28 c26 37 97 75 201 107 106 33
155 61 207 118 70 76 79 163 23 211 l-29 24 37 29 c257 205 629 345 1002 377
128 11 440 -2 573 -24z m-3593 -80 c36 -18 40 -24 40 -58 0 -56 15 -98 52
-144 l33 -42 -33 19 c-56 33 -129 103 -146 139 -15 32 -14 71 1 99 6 10 9 9
53 -13z m175 -40 c27 -28 27 -30 16 -92 -9 -45 -9 -71 -2 -91 16 -40 0 -33
-56 26 -55 58 -70 98 -53 142 23 61 47 65 95 15z m2788 11 c17 -29 22 -76 11
-105 -5 -14 -9 -13 -25 5 -11 12 -20 20 -22 18 -10 -17 -30 -78 -30 -95 1 -11
-7 -25 -16 -31 -14 -9 -16 0 -16 91 l0 100 34 23 c43 29 43 29 64 -6z m-2616
-37 c22 -34 22 -109 0 -149 -11 -20 -16 -24 -17 -12 0 17 -20 25 -20 8 0 -5
-8 -8 -17 -7 -14 1 -18 -6 -16 -26 2 -34 -19 -37 -41 -6 -33 47 -11 152 42
195 35 29 48 29 69 -3z m2427 5 c14 -11 33 -34 41 -49 17 -33 20 -80 5 -80 -5
0 -10 -7 -10 -15 0 -9 -6 -12 -16 -8 -14 5 -16 0 -13 -35 l4 -40 -28 16 c-59
34 -85 138 -52 202 18 35 33 37 69 9z m-2263 -53 c15 -32 6 -67 -27 -106 -26
-31 -91 -70 -116 -70 -7 0 6 9 29 21 38 19 60 45 49 57 -3 2 -17 -5 -32 -17
-34 -27 -48 -27 -34 -1 6 12 14 40 18 63 6 35 13 45 42 59 46 24 58 23 71 -6z
m2126 -8 c14 -13 23 -33 23 -51 0 -17 11 -50 25 -74 22 -36 23 -43 10 -43 -20
0 -57 19 -67 34 -4 6 -15 11 -25 11 -39 0 -75 91 -57 140 9 22 59 13 91 -17z
m-1957 -55 c0 -17 -13 -38 -38 -62 -40 -38 -83 -55 -167 -66 l-50 -6 40 23
c27 15 48 40 65 72 28 54 45 64 108 65 39 1 42 -1 42 -26z m1800 17 c11 -6 25
-20 31 -32 11 -20 10 -20 -12 -4 -24 17 -59 22 -59 9 0 -10 61 -47 77 -48 7 0
25 -12 40 -26 15 -15 37 -32 48 -38 42 -25 -90 0 -144 27 -57 28 -98 79 -87
107 6 18 77 21 106 5z m-797 -177 c239 -5 282 -9 299 -23 48 -39 6 -136 -86
-197 -26 -18 -91 -46 -144 -63 -101 -31 -179 -72 -205 -110 l-16 -22 -30 34
c-40 46 -113 84 -196 103 -88 21 -128 38 -175 75 -39 31 -70 83 -70 118 0 27
45 80 73 85 37 7 257 7 550 0z"/>
<path d="M3063 8988 c-51 -16 -93 -33 -93 -37 0 -4 23 -46 50 -94 28 -48 50
-89 50 -91 0 -2 -24 -7 -52 -10 -194 -26 -545 -142 -765 -253 -161 -81 -198
-96 -126 -52 20 13 31 25 24 27 -17 6 -296 60 -298 58 0 0 -4 -66 -7 -145 l-5
-143 -93 -78 c-146 -122 -318 -316 -443 -500 -43 -63 -53 -85 -43 -91 28 -18
47 -7 87 51 43 60 43 60 66 43 76 -59 124 -99 125 -103 0 -3 -50 -30 -111 -60
-61 -30 -113 -58 -115 -62 -4 -7 93 -247 107 -262 7 -8 202 95 213 113 3 5 -6
37 -19 72 -31 78 -31 83 -1 103 24 15 27 14 108 -54 46 -38 90 -70 98 -69 8 0
34 10 58 23 l43 22 -225 193 c-124 107 -226 197 -226 201 0 3 15 23 33 43 l32
37 198 -186 c214 -201 203 -194 281 -164 l30 11 -90 86 c-49 47 -147 142 -218
211 l-128 125 35 34 34 35 7 -62 7 -62 63 7 c60 6 64 5 70 -17 3 -13 6 -51 6
-86 l0 -63 143 3 142 3 5 65 5 64 40 -58 40 -58 54 5 c29 3 56 8 59 11 3 3
-69 118 -160 254 l-165 248 50 33 c29 19 52 29 56 23 3 -6 67 -110 141 -231
l135 -221 59 0 c51 0 57 2 52 17 -6 15 -219 395 -269 480 l-18 32 132 65 c73
37 140 66 149 66 10 0 24 -24 42 -70 14 -38 25 -70 24 -70 0 0 -25 9 -55 20
-29 12 -54 20 -55 18 0 -2 -25 -51 -54 -111 -28 -59 -52 -114 -52 -122 0 -15
206 -125 234 -125 7 0 24 25 36 56 13 30 26 52 30 47 4 -4 18 -36 30 -71 13
-35 30 -67 39 -71 25 -13 101 -24 101 -14 0 4 -43 129 -95 277 -52 148 -95
273 -95 277 0 7 62 39 75 39 5 0 39 -109 90 -285 25 -88 51 -174 56 -192 9
-28 18 -34 66 -48 30 -9 57 -14 60 -11 2 2 -31 132 -74 288 l-79 283 134 28
c74 16 135 27 137 25 2 -2 6 -20 10 -40 l7 -37 -71 -7 c-84 -8 -81 2 -51 -174
11 -63 20 -118 20 -122 0 -3 36 -4 80 -1 l80 6 0 -42 c0 -37 -3 -41 -24 -41
-13 0 -26 7 -30 15 -4 10 -20 15 -51 15 l-45 0 0 -42 c0 -24 3 -60 6 -80 6
-35 8 -36 41 -31 29 5 39 1 71 -30 35 -33 39 -35 85 -28 26 4 50 11 54 15 4 3
-6 19 -21 35 l-27 28 30 6 c21 4 31 12 31 24 -1 44 -28 274 -33 280 -4 3 -40
1 -82 -4 -65 -8 -75 -7 -75 6 0 9 -3 26 -6 38 -6 20 -2 22 66 29 l71 7 -7 98
-6 98 71 7 c70 7 71 7 71 36 l0 30 -52 -7 c-29 -3 -65 -8 -79 -11 -24 -4 -28
0 -53 57 -30 69 -28 74 32 85 17 3 32 8 32 11 0 16 -43 83 -53 82 -6 -1 -54
-14 -104 -31z m-1114 -860 l51 -72 0 -103 0 -103 -34 0 -34 0 -7 145 -7 145
-57 -6 -56 -5 40 35 c22 20 43 36 47 36 4 0 29 -32 57 -72z"/>
<path d="M4533 8750 c8 -66 11 -70 56 -70 l39 0 7 -66 c4 -36 5 -67 3 -69 -1
-1 -43 15 -91 36 -241 107 -535 182 -794 204 -76 7 -81 6 -88 -14 -9 -30 2
-41 41 -41 l35 0 -3 -47 -3 -48 -97 -3 -96 -3 -7 -82 c-3 -45 -5 -134 -3 -197
l3 -115 63 -8 62 -9 11 -44 c6 -24 14 -46 18 -48 3 -2 28 -7 55 -11 l49 -7 -6
34 c-3 18 -8 41 -12 51 -5 11 -2 17 8 17 11 0 18 19 26 63 18 105 17 107 -65
107 -39 0 -44 -2 -44 -23 0 -21 -4 -23 -31 -19 -34 5 -33 -2 -13 136 l6 38 89
-7 c88 -6 89 -6 89 17 0 13 7 59 16 104 l16 80 41 -6 c30 -4 41 -10 40 -21 -2
-8 -23 -115 -48 -239 -25 -123 -45 -234 -45 -247 0 -21 57 -113 70 -113 7 0
42 146 101 425 18 83 35 154 39 158 8 9 130 -21 130 -31 0 -2 -17 -60 -37
-128 l-37 -124 -37 0 c-37 0 -49 -12 -49 -48 0 -8 17 -42 38 -74 30 -47 42
-58 64 -58 22 0 31 7 42 35 15 34 17 35 70 35 l55 0 -40 -89 c-21 -49 -39 -94
-39 -100 0 -24 51 -124 59 -115 4 5 50 108 101 229 51 121 103 244 116 273
l23 52 45 -22 c26 -12 46 -26 46 -32 0 -5 -54 -114 -120 -242 l-119 -233 17
-50 c9 -28 21 -52 26 -53 9 -3 44 57 180 311 49 90 96 177 105 192 l17 28 92
-61 c99 -65 98 -63 50 -121 l-23 -28 -49 41 c-26 22 -53 40 -60 40 -6 0 -57
-70 -114 -155 l-102 -155 22 -19 c13 -11 34 -28 47 -39 24 -19 24 -22 15 -86
l-10 -66 50 -35 c57 -40 58 -39 71 49 6 38 10 44 21 35 8 -7 17 -9 20 -6 12
12 94 131 94 137 0 3 -21 23 -46 44 l-46 39 -23 -29 c-21 -26 -25 -28 -40 -13
-14 14 -12 20 26 75 24 32 44 61 46 63 1 2 26 -14 55 -37 62 -48 57 -50 139
59 45 58 54 66 69 56 46 -33 160 -132 160 -138 0 -14 -133 -159 -146 -159 -33
0 -42 12 -37 45 5 31 3 33 -41 50 -26 10 -49 15 -52 13 -3 -3 -28 -94 -56
-202 l-51 -196 39 -42 c21 -24 43 -43 47 -43 9 0 35 88 69 228 6 26 15 47 20
47 5 0 28 -10 51 -21 l42 -22 100 107 c55 58 104 106 110 106 5 0 24 -14 42
-32 29 -28 35 -30 58 -20 l26 12 -20 28 c-25 35 -228 219 -336 304 -45 35
-135 98 -201 141 l-121 77 -22 137 c-30 191 -19 173 -108 173 l-76 0 6 -50z
m-143 -173 l28 -12 -35 -92 -35 -91 -51 -4 c-29 -2 -54 -3 -56 -1 -4 2 39 143
60 202 10 25 29 24 89 -2z"/>
<path d="M5557 7703 c-16 -16 -15 -19 8 -60 l26 -42 -42 -27 -41 -26 -86 58
c-48 31 -91 57 -97 57 -6 0 -66 -40 -133 -89 l-123 -89 7 -95 c6 -84 10 -100
38 -140 17 -24 34 -48 37 -52 4 -7 310 57 315 65 4 6 25 129 22 131 -25 14
-98 46 -106 46 -6 0 -12 -17 -14 -37 -3 -37 -4 -38 -63 -55 -96 -26 -97 -26
-93 33 3 49 4 52 63 94 l60 43 75 -49 c41 -27 81 -49 88 -49 8 0 45 19 83 41
38 23 71 40 73 38 2 -2 21 -35 41 -73 26 -47 34 -70 26 -75 -6 -4 -114 -61
-240 -126 l-229 -119 -4 -56 c-2 -30 -3 -57 -1 -59 2 -2 65 25 140 62 76 36
139 64 141 62 2 -2 -19 -58 -47 -124 -28 -66 -51 -127 -51 -136 0 -8 12 -21
28 -29 l27 -14 -48 -13 c-52 -13 -59 -22 -72 -96 l-7 -43 49 15 c26 9 87 27
134 42 l87 26 36 -22 36 -23 -22 -36 c-12 -21 -22 -38 -24 -40 -1 -2 -27 11
-58 28 -30 17 -59 29 -64 26 -10 -6 -46 -95 -41 -100 10 -9 190 -96 199 -96
10 0 170 233 170 248 0 4 -13 16 -30 25 -16 10 -30 21 -30 25 0 7 142 53 147
48 2 -2 14 -57 28 -122 29 -137 52 -330 42 -340 -4 -4 -57 -10 -117 -12 -99
-4 -110 -3 -117 13 -4 13 0 23 15 33 29 19 27 40 -6 79 l-28 32 -172 -107
-172 -107 0 -62 c0 -40 4 -63 11 -63 6 0 63 34 126 75 62 41 115 75 117 75 2
0 16 -19 32 -41 l28 -41 143 4 144 4 -3 -115 -3 -116 -106 -3 -106 -3 -13 31
c-11 27 -11 32 6 45 11 8 22 15 27 15 4 0 7 4 7 10 0 15 -54 89 -65 90 -23 0
-329 -178 -335 -196 -13 -36 -20 -114 -10 -114 5 0 61 27 125 61 63 33 119 58
124 55 22 -14 33 -68 26 -131 -6 -60 -8 -65 -28 -60 -12 3 -65 12 -117 20
l-95 15 -38 -41 c-22 -22 -36 -43 -33 -46 6 -6 15 -8 339 -68 131 -24 240 -45
242 -47 9 -10 -9 -68 -22 -68 -8 0 -124 23 -258 50 -134 28 -253 50 -264 50
-20 0 -91 -54 -91 -69 0 -4 44 -17 98 -29 241 -53 495 -112 499 -116 5 -4 -8
-72 -24 -128 -3 -13 4 -21 23 -28 15 -6 29 -8 32 -5 3 3 21 61 39 128 31 112
33 115 16 18 l-6 -35 34 20 c19 11 80 46 137 79 56 32 102 63 102 67 0 11
-181 218 -191 218 -4 0 -10 -6 -13 -12 -4 -7 -4 12 -1 42 18 190 26 380 20
475 -29 488 -155 874 -422 1298 -41 64 -80 117 -87 117 -6 0 -19 -8 -29 -17z
m259 -510 c52 -117 95 -236 87 -243 -13 -12 -133 -49 -133 -41 0 3 9 33 20 65
12 32 20 59 18 61 -2 1 -63 22 -136 46 l-133 44 123 62 c68 34 124 62 126 62
1 1 14 -25 28 -56z m183 -1299 c2 -1 0 -30 -4 -63 -6 -54 -10 -61 -28 -61 -31
0 -160 20 -165 25 -2 2 -1 29 3 60 l7 56 91 -7 c51 -3 94 -8 96 -10z"/>
<path d="M1080 7327 l-30 -52 -125 -39 c-69 -22 -125 -45 -125 -52 0 -15 109
-242 119 -249 5 -2 -3 -51 -16 -107 -35 -152 -83 -594 -83 -768 l0 -145 -27
27 -27 27 22 24 c20 21 23 33 20 90 l-3 65 -95 -81 c-52 -44 -95 -84 -95 -89
0 -14 196 -188 211 -188 8 0 14 -10 14 -25 0 -26 9 -29 48 -18 18 4 23 11 19
29 -2 12 -1 27 2 32 3 5 66 12 140 16 l133 7 -31 -43 c-18 -24 -42 -56 -55
-72 l-24 -29 -50 36 c-27 21 -52 37 -55 37 -12 0 -155 -184 -151 -194 5 -11
157 -124 179 -132 7 -3 29 18 49 45 20 28 39 51 43 51 5 0 46 -30 93 -66 l85
-66 27 31 c16 17 28 38 28 45 0 8 -36 43 -80 78 -44 35 -80 67 -80 71 0 12 84
116 94 116 5 1 48 -28 96 -64 48 -36 90 -65 94 -65 11 0 55 54 56 67 0 7 -40
46 -89 87 l-89 74 46 5 c47 5 47 6 90 81 l22 41 -37 3 c-21 2 -105 -1 -188 -7
-82 -6 -198 -13 -257 -17 l-108 -6 0 54 0 55 38 7 c20 3 129 6 242 6 113 0
215 3 227 6 19 5 73 82 73 103 0 4 -130 5 -290 3 l-290 -4 0 48 0 49 117 -3
118 -3 27 -32 27 -32 55 29 c47 24 56 33 62 62 7 40 -8 64 -41 64 -13 0 -25 6
-28 13 -3 6 -12 28 -20 48 l-16 35 112 -18 c62 -9 120 -15 129 -12 22 6 80 73
73 83 -2 5 -66 17 -140 27 l-136 18 33 25 c67 52 118 104 118 120 0 10 -13 30
-29 45 l-30 28 -46 -37 -46 -38 -27 26 -27 27 40 39 40 40 126 -41 127 -41 46
39 c25 21 43 41 38 45 -4 4 -38 17 -77 29 -38 13 -162 54 -273 93 -201 69
-204 70 -199 96 3 14 10 38 16 53 l10 27 248 -100 c136 -54 254 -99 263 -99
16 1 90 65 90 78 0 4 -122 57 -270 117 -149 60 -273 112 -276 116 -3 5 7 31
21 58 14 28 25 55 25 60 0 5 -14 14 -30 20 -30 10 -31 9 -60 -42z m-16 -453
c33 -8 64 -19 68 -22 4 -4 -16 -33 -43 -64 -36 -42 -49 -63 -44 -77 3 -11 40
-51 81 -91 73 -69 74 -71 42 -66 -18 3 -78 13 -133 21 -54 9 -101 18 -104 20
-8 9 55 295 65 295 4 0 34 -7 68 -16z m-7 -411 c27 -4 34 -12 47 -50 l16 -46
-62 7 c-33 3 -83 6 -109 6 -47 0 -49 1 -49 28 0 15 3 38 7 50 5 23 9 24 62 17
31 -3 70 -9 88 -12z"/>
<path d="M4706 5190 c-34 -54 -42 -60 -72 -60 -72 0 -154 -56 -154 -105 0 -15
11 -36 25 -49 l25 -23 -26 -23 c-13 -13 -22 -30 -20 -37 4 -8 -3 -13 -19 -13
-13 0 -30 -9 -38 -21 -26 -37 -206 -165 -292 -208 -59 -30 -82 -47 -78 -57 3
-8 13 -14 22 -14 10 0 25 -15 34 -35 23 -49 58 -63 101 -42 33 15 35 15 48 -4
11 -17 15 -18 32 -6 17 13 16 16 -23 80 -23 37 -41 71 -41 75 0 14 46 34 66
30 33 -6 29 -38 -5 -51 -39 -14 -36 -25 15 -54 50 -29 76 -29 111 1 24 21 26
26 14 40 -12 15 -16 15 -31 1 -9 -8 -26 -15 -38 -15 -21 0 -21 1 -5 35 16 34
16 36 -4 63 -20 27 -20 29 -3 40 16 10 25 3 71 -53 29 -36 56 -65 60 -65 3 0
12 7 19 15 10 12 3 26 -39 79 -46 58 -69 98 -39 68 17 -17 58 -15 80 5 29 26
22 -4 -8 -34 -32 -31 -22 -44 38 -48 50 -3 88 17 88 45 0 21 -15 27 -25 10 -3
-5 -17 -10 -30 -10 -23 0 -24 2 -13 25 9 21 8 32 -5 60 -9 19 -22 35 -29 35
-9 0 -9 3 0 12 10 10 25 0 70 -45 60 -60 70 -65 90 -45 10 10 -1 26 -50 75
-34 34 -59 65 -55 69 3 4 34 -17 67 -45 67 -56 72 -58 89 -37 9 11 -1 25 -54
71 l-65 57 47 59 c25 32 50 59 56 59 10 0 2 -12 -45 -68 -16 -18 -28 -39 -28
-46 0 -20 27 -27 41 -10 10 12 14 12 26 -6 12 -17 24 -20 55 -18 45 3 71 29
51 49 -8 8 -16 7 -31 -2 -17 -10 -23 -10 -36 0 -20 16 -20 31 -2 56 13 19 15
18 55 -8 22 -15 45 -27 51 -27 11 0 11 1 16 40 1 14 6 38 10 53 5 22 1 34 -16
53 -31 33 -73 32 -99 -3 -32 -39 -36 -21 -6 26 25 41 26 61 2 61 -7 0 -29 -27
-51 -60z"/>
<path d="M1955 5380 c-3 -6 -1 -26 6 -45 10 -28 10 -38 1 -47 -17 -17 -46 2
-50 31 -3 15 -8 21 -19 17 -8 -3 -17 -6 -19 -6 -2 0 -4 -4 -4 -10 0 -5 -9 -19
-20 -30 -24 -24 -26 -77 -4 -108 12 -18 19 -20 35 -12 18 10 18 13 3 42 -9 16
-12 34 -7 38 11 12 36 -9 50 -42 11 -25 10 -29 -17 -45 -32 -18 -36 -29 -21
-52 8 -12 23 -6 80 32 39 26 73 47 76 47 13 0 36 -51 30 -70 -9 -27 -31 -25
-51 5 -20 31 -32 32 -44 1 -5 -13 -14 -27 -19 -31 -16 -9 -13 -51 4 -85 16
-31 30 -36 55 -20 12 8 12 11 -3 28 -20 22 -23 52 -4 52 31 -1 58 -46 45 -76
-7 -15 -5 -30 6 -52 l16 -32 -24 11 c-64 29 -92 -52 -37 -105 18 -17 36 -26
45 -23 22 9 20 20 -9 45 -14 12 -25 26 -25 32 0 15 36 12 50 -5 8 -10 17 -12
24 -6 7 6 18 4 30 -5 11 -8 30 -14 43 -14 18 0 23 -6 23 -25 0 -26 19 -75 30
-75 3 0 14 6 25 13 12 10 14 16 7 21 -17 10 -15 56 3 63 9 3 25 -3 35 -12 20
-18 19 -19 -16 -62 -20 -24 -35 -45 -33 -46 2 -2 11 -8 20 -15 15 -11 24 -3
72 57 30 39 57 68 60 64 4 -3 -16 -37 -43 -76 -38 -54 -47 -73 -39 -84 19 -22
27 -16 76 53 35 47 52 64 65 61 10 -3 22 2 27 11 7 12 -10 30 -78 82 -157 122
-333 328 -401 468 -24 49 -42 63 -55 42z"/>
<path d="M2523 4764 c-4 -11 4 -24 26 -41 17 -13 31 -31 31 -39 0 -22 -28 -28
-56 -14 -32 18 -38 9 -35 -48 2 -52 19 -76 61 -91 23 -8 30 -6 35 7 4 10 -1
21 -12 29 -34 23 -43 34 -38 44 8 12 55 12 55 -1 0 -16 72 -42 81 -29 8 14 29
3 29 -15 0 -8 -17 -16 -40 -20 -32 -5 -40 -10 -40 -27 0 -19 5 -21 45 -17 43
3 45 2 42 -22 -1 -19 3 -26 19 -28 19 -3 25 6 44 65 12 37 24 74 26 82 3 9 8
11 14 5 6 -6 3 -35 -10 -79 -25 -89 -25 -97 2 -93 17 2 25 17 43 78 16 56 25
74 37 72 9 -1 18 7 21 18 4 15 -1 22 -19 26 -18 5 -24 13 -24 33 0 14 -9 41
-20 59 -16 26 -26 32 -55 32 -27 0 -38 -6 -52 -27 -9 -16 -18 -29 -19 -31 -1
-2 -43 17 -93 43 -78 39 -92 43 -98 29z"/>
<path d="M5087 4401 l-77 -77 -118 -12 c-178 -19 -349 -57 -540 -121 l-174
-58 -121 34 c-67 18 -124 29 -128 25 -11 -12 -92 -204 -92 -217 0 -7 -20 -22
-44 -34 -45 -22 -50 -36 -20 -55 12 -8 24 -6 46 7 l29 17 91 -174 c69 -131 96
-175 113 -180 36 -9 78 -7 78 4 0 6 -20 51 -45 100 -25 50 -44 90 -42 90 2 0
43 -13 92 -30 49 -16 92 -30 96 -30 4 0 11 12 17 28 l9 27 12 -37 c12 -38 13
-38 67 -38 30 0 54 2 54 5 0 3 -37 92 -81 198 -45 105 -83 197 -86 203 -2 6
27 23 68 38 57 21 74 24 81 14 13 -22 9 -27 -32 -38 -21 -6 -42 -14 -45 -19
-3 -5 9 -48 27 -96 26 -73 34 -86 50 -82 15 4 18 1 13 -16 -4 -12 -8 -29 -11
-37 -2 -10 23 -31 76 -62 44 -27 84 -48 89 -48 5 0 12 8 16 18 3 9 19 33 35
52 27 32 29 33 30 12 0 -15 9 -26 26 -32 35 -14 74 -12 74 3 0 6 -19 106 -42
220 -35 176 -39 210 -27 218 8 5 19 9 24 9 6 0 23 -81 38 -179 38 -243 35
-233 87 -248 24 -7 45 -11 47 -10 1 2 -11 104 -27 227 -17 123 -29 224 -28
225 2 1 17 5 34 8 l31 6 7 -76 c3 -42 6 -120 6 -175 0 -91 1 -98 20 -98 11 0
42 14 68 30 27 17 52 30 56 30 3 0 6 -28 6 -63 0 -63 0 -63 39 -85 l38 -22 7
88 c3 48 9 153 12 235 l7 147 30 0 30 0 -7 -117 c-4 -65 -9 -159 -13 -209 l-6
-90 44 -26 c24 -15 46 -24 48 -22 2 2 12 103 21 224 9 121 19 223 23 226 6 6
167 -12 174 -20 2 -1 0 -20 -5 -41 -7 -35 -12 -39 -72 -61 -35 -14 -65 -26
-66 -27 -1 -1 -8 -48 -14 -105 l-12 -102 38 -65 39 -65 62 0 61 0 68 83 c37
45 71 87 76 93 9 13 -75 134 -92 134 -15 0 -70 -42 -70 -53 0 -5 9 -22 21 -38
l21 -29 -31 -39 c-47 -60 -58 -66 -70 -42 -13 24 -14 111 -2 143 5 15 31 34
69 52 63 30 72 45 72 119 0 29 1 29 40 24 39 -5 40 -4 40 23 0 25 -5 30 -32
34 -18 3 -73 13 -123 21 -49 8 -106 15 -125 16 -31 0 -44 10 -110 84 -41 46
-77 83 -80 84 -3 0 -40 -35 -83 -78z m-529 -314 c12 -56 22 -109 22 -116 0 -7
-14 -33 -32 -57 -22 -32 -35 -41 -42 -34 -8 8 -4 16 13 29 21 16 23 23 17 65
-4 25 -9 46 -10 46 -2 0 -23 -7 -46 -15 -52 -18 -50 -18 -50 0 0 9 16 23 35
32 40 19 41 24 20 83 -19 54 -19 58 3 63 45 12 47 10 70 -96z m-415 -82 c9
-20 17 -38 17 -41 0 -3 -17 -4 -37 -2 l-38 3 -25 -103 -25 -103 -48 97 c-26
53 -47 98 -45 99 10 9 165 84 174 85 6 0 18 -16 27 -35z"/>
<path d="M2339 3931 l-46 -119 30 -52 30 -52 44 5 c24 2 47 8 50 11 4 4 -3 26
-15 51 l-22 45 28 70 27 70 45 0 c43 0 46 2 61 39 10 22 14 42 11 45 -3 3 -48
6 -101 6 l-96 0 -46 -119z"/>
<path d="M10360 9540 c-689 -48 -1347 -305 -1890 -739 -121 -96 -360 -329
-458 -446 -368 -437 -620 -950 -731 -1490 -57 -275 -66 -372 -65 -710 0 -334
11 -448 70 -715 195 -884 738 -1655 1507 -2140 l99 -62 71 39 c134 71 227 113
252 113 28 0 75 20 75 31 0 5 10 13 21 20 17 9 20 8 16 -3 -2 -7 -10 -12 -16
-11 -20 5 -11 -18 11 -26 20 -7 19 -10 -23 -33 -24 -14 -108 -56 -186 -93 -79
-38 -143 -71 -143 -75 0 -8 264 -136 350 -170 744 -297 1573 -323 2325 -75
406 134 756 326 1092 600 124 101 399 374 387 384 -5 4 -110 31 -234 61 -314
74 -637 199 -768 297 -26 20 -31 28 -21 39 16 19 29 18 53 -5 27 -25 272 -152
356 -185 36 -14 128 -42 205 -61 77 -20 207 -54 289 -76 144 -39 149 -40 168
-22 11 10 64 77 118 148 369 492 586 1039 661 1670 18 143 18 577 1 715 -85
694 -330 1278 -751 1790 -300 366 -661 655 -1086 870 -296 151 -575 246 -905
309 -248 47 -601 68 -850 51z m-113 -279 c26 -10 152 -53 278 -96 169 -56 251
-89 310 -125 44 -26 97 -53 117 -60 21 -6 64 -31 95 -54 57 -42 238 -224 230
-232 -2 -2 -59 7 -127 21 -107 22 -149 25 -325 25 -179 0 -231 -4 -451 -36
-137 -20 -251 -37 -253 -39 -19 -20 42 -17 236 12 211 32 245 34 458 33 206
-1 244 -3 365 -27 121 -24 140 -30 178 -62 24 -20 48 -46 53 -58 5 -14 14 -21
23 -17 29 11 147 -38 240 -99 78 -52 113 -85 211 -197 133 -153 271 -335 403
-531 66 -99 100 -140 131 -159 49 -30 71 -77 71 -156 0 -30 7 -71 15 -92 9
-20 20 -56 26 -80 27 -123 -4 -1207 -38 -1302 -17 -48 -40 -73 -56 -63 -5 3
-14 -1 -19 -8 -7 -11 -11 -11 -15 -1 -2 6 -9 12 -14 12 -6 0 -20 9 -32 21 -31
29 -148 83 -174 81 -15 -1 -23 4 -23 14 0 10 6 14 15 10 8 -3 15 -1 15 4 0 6
9 10 20 10 18 0 19 3 10 20 -6 11 -16 20 -23 18 -21 -4 -91 24 -120 48 -16 13
-32 24 -36 24 -14 0 -71 88 -71 111 0 12 -9 32 -20 43 -23 25 -39 106 -21 106
18 0 61 -50 61 -71 0 -24 10 -49 21 -49 14 0 11 39 -5 68 -8 15 -23 47 -34 72
-23 50 -105 224 -161 340 -20 42 -46 89 -58 105 -11 17 -26 49 -33 73 -8 23
-19 47 -27 53 -7 6 -13 16 -13 21 0 11 35 -7 80 -43 19 -15 50 -30 67 -34 40
-8 56 -30 83 -110 14 -43 43 -89 102 -163 74 -93 90 -121 172 -309 50 -114 97
-209 105 -211 20 -7 5 52 -29 113 -31 54 -112 237 -107 241 1 2 43 -33 92 -76
50 -44 94 -75 98 -71 9 9 -4 21 -148 151 -107 96 -238 264 -263 339 -11 33
-19 61 -16 61 3 0 44 -26 92 -58 115 -77 112 -76 112 -59 0 19 -173 132 -263
172 -118 52 -234 134 -341 241 -73 73 -477 374 -576 429 -85 48 -100 60 -100
82 0 6 74 56 164 111 l164 100 155 26 c86 14 191 26 234 26 157 0 363 13 363
23 0 7 -83 8 -242 4 -196 -5 -270 -11 -382 -31 l-139 -25 -158 -96 c-87 -53
-163 -94 -168 -91 -5 4 -13 1 -17 -5 -5 -8 -3 -9 6 -4 9 5 11 4 6 -4 -4 -6
-12 -8 -18 -5 -5 3 -28 -3 -51 -14 -67 -33 -116 -52 -207 -78 -47 -13 -94 -28
-105 -33 -11 -5 -66 -21 -121 -36 -85 -22 -114 -36 -180 -82 -44 -31 -81 -59
-84 -62 -3 -4 -24 -21 -47 -40 -24 -18 -43 -37 -43 -42 0 -12 40 8 60 31 8 9
31 22 50 30 19 8 55 24 79 37 24 13 51 23 60 23 10 0 23 6 30 13 6 6 15 12 19
12 19 2 59 19 75 33 12 11 17 12 17 2 0 -10 3 -10 15 0 21 17 83 48 124 61 20
6 41 15 46 19 6 4 35 13 65 20 30 7 70 19 88 27 17 7 32 10 32 7 0 -4 6 -2 13
5 8 6 24 9 37 6 48 -9 245 -129 378 -228 247 -187 379 -311 456 -432 21 -33
47 -72 57 -87 11 -15 19 -34 19 -42 0 -8 6 -19 14 -23 16 -10 46 -66 46 -88 0
-8 5 -15 11 -15 8 0 10 -16 6 -50 -5 -45 -4 -50 13 -50 11 0 20 -6 20 -12 0
-7 7 -26 15 -41 8 -16 14 -38 14 -50 0 -12 13 -61 30 -109 24 -67 33 -110 37
-185 4 -84 10 -120 30 -191 2 -7 8 -10 14 -7 5 3 7 0 5 -7 -3 -8 2 -22 11 -33
8 -11 13 -14 9 -7 -3 6 -2 12 4 12 12 0 28 -49 40 -128 6 -34 13 -67 16 -72 3
-6 1 -10 -5 -10 -6 0 -13 14 -16 30 -4 17 -10 30 -14 30 -4 0 -11 20 -14 45
-4 25 -12 45 -17 45 -15 0 -7 -73 10 -93 14 -17 14 -20 -1 -31 -10 -7 -16 -15
-13 -18 2 -2 6 -25 9 -50 2 -26 12 -57 20 -70 9 -14 14 -27 10 -30 -3 -3 0 -9
6 -13 8 -5 10 9 6 49 -6 56 7 76 19 34 4 -13 20 -50 35 -83 49 -105 53 -132
28 -183 -12 -24 -30 -48 -40 -53 -10 -5 -18 -19 -18 -30 0 -12 -4 -17 -11 -14
-7 5 -9 -8 -7 -36 4 -54 28 -63 63 -25 16 17 35 26 55 26 24 0 33 6 42 28 7
15 21 35 31 44 14 12 16 21 9 34 -14 24 7 45 31 32 14 -7 17 -16 11 -41 -3
-18 -11 -38 -16 -44 -6 -7 -7 -13 -4 -13 4 0 -2 -14 -14 -31 -12 -16 -20 -32
-17 -35 8 -9 45 18 58 43 8 14 22 23 36 23 37 0 29 -38 -36 -168 -68 -133
-126 -208 -194 -252 -55 -34 -78 -37 -99 -12 -24 28 -47 81 -38 87 14 9 9 75
-6 75 -15 0 -22 -65 -12 -111 4 -19 10 -59 13 -90 3 -30 7 -64 10 -75 10 -42
74 -222 99 -278 14 -33 24 -61 21 -64 -3 -3 0 -11 6 -19 9 -11 3 -12 -37 -6
-27 3 -58 12 -69 19 -23 16 -35 18 -35 5 0 -5 16 -16 35 -25 40 -20 40 -19 18
-37 -11 -10 -14 -10 -9 -1 5 8 -2 16 -20 22 -38 15 -44 3 -13 -24 15 -13 30
-33 34 -45 8 -25 16 -26 56 -5 39 19 45 14 19 -16 -24 -27 -26 -46 -5 -54 8
-3 15 -12 15 -20 0 -7 7 -16 15 -20 8 -3 15 -15 15 -26 0 -19 -4 -21 -30 -15
-17 4 -30 2 -30 -3 0 -12 -79 -12 -86 -1 -3 5 0 9 5 9 6 0 11 5 11 10 0 6 -11
10 -25 10 -33 0 -32 -13 4 -42 32 -28 50 -68 30 -68 -7 0 -22 11 -34 25 -14
17 -33 25 -62 28 -24 2 -43 2 -43 0 0 -12 42 -78 64 -100 30 -30 31 -36 11
-53 -8 -7 -15 -18 -15 -26 0 -7 -5 -16 -11 -19 -7 -5 -9 3 -6 24 4 26 1 35
-21 49 -15 9 -30 22 -34 28 -4 7 -20 15 -35 19 -15 3 -31 11 -34 17 -11 18
-39 0 -39 -24 0 -13 9 -29 20 -36 25 -15 27 -43 3 -39 -10 1 -23 6 -30 10 -8
5 -12 -3 -11 -25 0 -18 -3 -48 -7 -65 -5 -23 -4 -33 4 -33 7 0 11 8 9 18 -2
11 2 21 7 23 6 2 11 -11 13 -29 3 -27 -1 -34 -22 -42 -24 -9 -43 -48 -38 -76
3 -17 -26 -25 -32 -9 -3 8 1 30 9 49 17 39 21 116 6 101 -5 -6 -13 -26 -18
-45 -7 -25 -15 -35 -29 -35 -10 0 -22 -4 -25 -8 -3 -5 -15 -10 -25 -11 -11 -2
-20 -12 -22 -25 -3 -17 -9 -22 -22 -18 -13 3 -17 0 -13 -9 7 -18 12 -18 34 2
14 12 22 13 38 4 12 -6 21 -15 21 -20 0 -4 12 -23 26 -40 15 -17 23 -34 20
-38 -4 -4 -23 12 -42 36 -37 44 -54 52 -54 27 0 -14 -3 -14 -30 0 -33 17 -41
18 -39 8 3 -20 -2 -24 -16 -13 -21 17 -25 11 -27 -38 -1 -29 -6 -42 -15 -42
-8 0 -12 -4 -8 -10 3 -5 -8 -16 -24 -25 -22 -11 -33 -27 -41 -55 -12 -44 -30
-62 -30 -31 0 25 -17 27 -48 5 -20 -14 -22 -14 -23 3 -1 10 -1 23 0 30 1 6 -9
19 -21 27 -30 21 -45 5 -29 -30 14 -32 7 -44 -9 -14 -11 20 -35 23 -35 4 0 -5
-3 -14 -7 -19 -4 -6 0 -25 9 -43 16 -33 12 -62 -8 -62 -7 0 -9 11 -5 30 4 23
2 30 -10 30 -10 0 -14 6 -11 14 8 21 -2 26 -29 16 -15 -6 -24 -6 -24 0 0 6 -5
10 -10 10 -7 0 -7 -6 0 -20 6 -11 8 -20 4 -20 -4 0 0 -8 9 -18 10 -10 14 -21
11 -25 -13 -12 -80 7 -101 29 -23 23 -31 54 -14 54 6 0 13 21 17 48 5 39 16
66 41 111 2 2 9 -2 17 -8 10 -9 16 -9 21 -1 4 7 11 8 18 2 7 -5 23 -13 37 -17
l25 -7 -23 17 c-12 9 -22 22 -21 28 3 26 -2 35 -26 51 -25 16 -27 16 -45 -6
-13 -15 -22 -19 -27 -12 -5 6 -16 13 -26 17 -10 4 -15 12 -11 18 5 8 9 8 14
-1 10 -17 40 -5 40 15 0 8 -3 15 -7 14 -22 -3 -54 15 -51 29 5 24 25 25 31 1
3 -12 10 -18 16 -14 7 4 8 12 2 23 -6 10 -4 32 5 61 17 57 17 61 0 61 -17 0
-40 -54 -32 -76 5 -13 2 -15 -17 -10 -19 4 -27 0 -37 -19 -9 -17 -19 -23 -30
-20 -14 4 -16 0 -12 -20 6 -32 -14 -33 -65 -2 l-38 22 29 3 c29 4 31 14 15 71
-2 8 4 16 13 18 12 3 15 -1 11 -16 -8 -29 11 -26 25 4 8 18 20 25 39 25 25 1
26 2 11 13 -9 7 -18 24 -20 37 -2 19 -10 26 -30 28 -25 3 -28 0 -28 -26 0 -21
-6 -31 -20 -35 -11 -3 -23 -1 -26 4 -3 6 -11 5 -20 -2 -12 -10 -12 -14 -1 -28
16 -17 19 -51 5 -51 -4 0 -8 7 -8 15 0 10 -7 15 -17 13 -14 -2 -19 5 -21 30
-2 18 -9 32 -17 32 -10 0 -11 -9 -5 -37 5 -20 8 -39 8 -42 -2 -18 4 -22 16
-12 10 8 16 9 21 1 8 -13 -3 -30 -20 -30 -17 0 -28 -31 -15 -44 5 -5 10 -19
10 -30 0 -14 -6 -8 -20 19 -13 24 -20 56 -19 80 3 51 -10 105 -25 106 -6 1
-19 1 -28 0 -23 -3 -25 37 -3 45 25 10 17 31 -19 48 -19 9 -39 16 -45 16 -6 0
-11 4 -11 10 0 5 -11 12 -25 16 -18 4 -29 19 -45 60 -22 61 -23 64 -12 64 9 0
42 -58 42 -74 0 -20 33 -45 68 -52 17 -3 33 -12 36 -19 2 -7 25 -16 50 -19 43
-7 45 -8 40 -35 -7 -34 13 -45 49 -28 32 15 51 60 44 108 -4 30 -2 39 10 39 8
0 17 -9 20 -19 5 -19 31 -36 40 -27 5 5 -19 78 -28 86 -15 14 -16 40 -2 52 14
11 16 11 11 -3 -3 -8 2 -25 11 -38 17 -22 17 -22 41 -3 23 18 23 22 10 48 -24
49 -24 49 4 19 19 -20 25 -36 22 -54 -16 -89 -17 -101 -3 -101 20 0 37 21 37
47 0 13 5 23 10 23 15 0 12 -32 -5 -54 -20 -26 -19 -42 4 -65 10 -10 23 -27
29 -36 10 -19 68 -29 78 -14 3 5 0 9 -5 9 -6 0 -11 9 -11 19 0 11 -5 23 -11
27 -6 3 -9 17 -6 31 3 15 -1 27 -9 30 -19 7 -18 23 1 23 8 0 15 5 15 10 0 6
12 10 28 11 27 0 27 0 4 10 -13 5 -28 6 -34 3 -5 -3 -16 3 -24 15 -9 12 -19
19 -23 16 -5 -2 -16 4 -26 15 -16 17 -16 20 -2 26 9 3 25 -4 37 -16 18 -18 24
-20 31 -9 4 8 13 14 18 14 6 0 17 9 25 20 9 11 16 15 16 9 0 -5 -10 -21 -21
-33 -17 -19 -19 -25 -8 -31 42 -26 55 71 15 109 -22 21 -25 21 -34 6 -15 -28
-27 3 -11 32 11 20 11 26 -1 33 -21 13 -65 -26 -65 -58 0 -31 -20 -40 -28 -12
-3 13 -10 18 -21 14 -10 -4 -16 -1 -16 9 0 8 -7 20 -15 27 -12 10 -15 9 -15
-6 0 -11 -3 -15 -10 -8 -5 5 -10 37 -11 72 -1 42 -6 62 -15 62 -14 0 -59 68
-51 76 3 3 16 0 29 -7 14 -7 18 -14 11 -16 -18 -6 1 -40 27 -48 16 -5 20 -15
20 -51 0 -51 17 -58 48 -19 13 16 23 22 27 15 5 -8 14 -5 27 7 13 11 22 14 25
7 2 -6 15 -9 28 -6 18 3 34 -4 57 -27 29 -28 33 -30 39 -14 10 26 -2 76 -20
90 -9 6 -13 15 -9 18 4 4 17 -5 30 -19 13 -15 41 -33 63 -41 38 -13 41 -13 58
7 14 17 20 19 27 9 14 -23 30 -2 23 32 -7 41 -21 57 -32 38 -7 -11 -11 -9 -20
8 -7 11 -21 21 -31 21 -11 0 -20 6 -20 14 0 7 -6 19 -14 26 -8 6 -13 17 -10
24 7 19 -42 59 -66 53 -13 -3 -20 0 -20 9 0 8 -7 17 -15 20 -8 4 -15 14 -15
23 0 9 -14 36 -31 59 -17 24 -31 56 -32 75 -1 17 -6 31 -12 29 -5 -2 -9 -12
-7 -22 4 -25 -26 -27 -35 -2 -4 9 -9 19 -12 22 -4 3 -12 18 -19 34 -7 16 -15
26 -18 23 -3 -3 -14 3 -25 14 -11 11 -24 17 -29 14 -6 -4 -10 3 -10 15 0 27
-29 39 -42 17 -5 -10 -14 -17 -20 -17 -6 0 -4 8 5 18 13 14 14 25 5 66 -7 34
-7 55 1 73 11 25 6 94 -11 126 -10 20 -8 20 26 7 24 -9 25 -8 14 10 -7 11 -18
20 -25 20 -7 0 -13 5 -13 11 0 8 16 10 50 6 115 -14 158 49 83 122 -36 35 -39
36 -113 36 -41 0 -119 -3 -173 -6 -54 -3 -100 -2 -103 3 -3 4 -14 3 -25 -2
-13 -7 -19 -7 -19 0 0 5 -5 10 -10 10 -6 0 -27 7 -48 16 -20 9 -54 18 -75 20
-21 2 -46 8 -56 14 -26 14 -101 -25 -96 -50 6 -31 -24 -33 -31 -2 -10 46 -12
48 -19 16 -5 -25 -14 -33 -36 -38 -16 -3 -29 -11 -29 -19 0 -7 -25 -37 -55
-67 -30 -30 -55 -51 -55 -47 0 4 -8 3 -19 -2 -16 -9 -17 -7 -13 14 5 30 -13
56 -34 48 -8 -3 -21 0 -28 6 -8 7 -20 11 -28 10 -16 -3 -68 21 -68 32 0 4 -11
10 -25 13 -14 4 -23 11 -20 16 3 6 -2 10 -13 10 -20 0 -72 42 -72 59 0 14 -23
19 -42 10 -12 -7 -18 -4 -23 12 -9 26 -50 23 -50 -5 0 -11 -6 -21 -13 -24 -9
-3 -9 -8 2 -24 10 -13 13 -37 9 -74 -3 -34 0 -54 6 -54 6 0 11 -11 11 -23 0
-13 7 -38 16 -55 8 -18 13 -36 10 -41 -3 -4 3 -16 14 -26 11 -10 20 -24 20
-32 0 -17 21 -54 40 -70 13 -11 11 -12 -9 -13 -14 0 -33 7 -43 17 -17 15 -18
15 -18 -2 0 -10 3 -16 6 -12 9 8 34 -18 34 -36 0 -19 42 -30 52 -14 5 7 8 -1
8 -20 0 -40 20 -55 21 -16 0 24 2 25 8 8 5 -11 13 -21 20 -21 6 -1 16 -2 22
-3 6 0 8 -11 4 -23 -6 -21 -4 -21 19 5 15 16 30 26 35 22 5 -3 13 0 17 6 3 6
1 15 -5 19 -18 11 8 26 48 29 40 2 59 15 72 48 5 13 15 23 24 23 9 0 15 9 15
26 0 33 17 64 36 64 10 0 13 7 8 24 -4 17 1 31 15 45 12 12 21 25 21 30 0 5
16 26 35 47 19 20 35 42 35 49 0 8 8 11 20 8 22 -6 26 -18 9 -29 -8 -4 -2 -12
15 -21 14 -7 26 -18 26 -24 0 -6 12 -26 27 -45 19 -25 32 -34 46 -30 18 4 18
4 1 -15 -9 -10 -24 -19 -31 -19 -21 0 -10 -24 13 -29 10 -2 22 -8 26 -14 4 -7
21 0 47 21 24 19 46 29 55 26 21 -8 20 -13 -8 -54 -27 -41 -21 -75 16 -89 32
-12 37 -6 31 37 -6 45 11 92 32 92 12 0 15 -6 10 -20 -10 -31 5 -23 16 9 8 23
15 27 34 23 14 -2 25 -6 25 -7 0 -2 -13 -17 -30 -35 -21 -23 -30 -42 -30 -66
0 -34 -19 -49 -21 -16 -1 16 -2 16 -6 0 -2 -10 -9 -18 -14 -18 -5 0 -7 -20 -4
-45 7 -52 2 -56 -19 -17 -12 23 -15 25 -21 10 -4 -10 -13 -18 -21 -18 -16 0
-48 -29 -57 -53 -3 -9 -2 -17 3 -17 6 0 10 -5 10 -12 0 -9 -3 -9 -12 0 -7 7
-20 12 -30 12 -13 0 -18 -8 -19 -32 l-1 -33 -8 29 c-5 16 -7 33 -4 38 8 13 -6
48 -20 48 -18 0 -36 -44 -36 -90 0 -31 -3 -38 -15 -34 -14 6 -14 49 0 95 4 11
2 19 -3 19 -6 0 -13 -11 -16 -25 -4 -15 -11 -22 -19 -19 -8 3 -23 -3 -35 -13
-20 -16 -21 -21 -9 -53 7 -19 16 -41 20 -48 11 -17 -19 -27 -38 -12 -8 6 -11
19 -7 28 5 15 3 15 -22 -2 -31 -20 -48 -10 -39 24 7 26 -14 34 -27 11 -7 -15
-7 -33 1 -66 14 -57 36 -61 30 -5 -2 9 3 7 13 -7 12 -16 13 -28 7 -45 -6 -13
-10 -17 -11 -8 0 8 -6 2 -13 -13 -7 -16 -14 -28 -17 -26 -11 7 -60 -35 -60
-51 0 -11 -7 -17 -17 -16 -9 0 -22 -9 -28 -21 -7 -13 -15 -20 -18 -16 -8 7
-47 -26 -47 -40 0 -6 -8 -19 -17 -30 -17 -18 -17 -19 7 -16 14 2 24 0 24 -6
-1 -5 -5 -31 -8 -57 -6 -41 -5 -48 10 -48 11 0 15 -6 11 -19 -3 -13 1 -21 13
-24 21 -5 36 -57 19 -67 -8 -5 -5 -10 10 -15 21 -6 22 -11 26 -93 1 -18 8 -44
15 -58 11 -19 11 -27 2 -36 -7 -7 -12 -20 -12 -29 0 -9 -7 -19 -15 -23 -19 -7
-19 -16 4 -45 l19 -25 -4 32 c-3 26 0 32 16 32 11 0 25 9 32 20 19 30 31 24
25 -10 -4 -17 -2 -30 3 -30 6 0 10 5 10 10 0 6 5 10 11 10 6 0 10 -12 8 -27
-2 -36 9 -63 27 -63 8 0 14 -5 14 -11 0 -5 5 -7 11 -3 6 3 9 15 6 25 -4 14 0
19 14 19 10 0 19 5 19 12 0 8 3 9 10 2 10 -10 -17 -75 -40 -98 -5 -5 -10 -20
-10 -33 0 -25 -15 -31 -23 -10 -3 6 -6 0 -6 -15 -1 -33 9 -34 65 -9 23 11 47
15 54 11 19 -12 4 -27 -35 -34 -40 -8 -55 -25 -32 -38 24 -13 0 -50 -28 -42
-18 5 -18 3 4 -15 31 -27 68 -27 76 0 4 13 1 25 -9 32 -26 20 -1 42 43 38 17
-1 6 -52 -14 -64 -10 -5 -12 -14 -6 -30 5 -12 5 -31 1 -41 -6 -19 -7 -18 -13
4 -6 23 -7 22 -52 -21 -25 -24 -45 -48 -45 -54 0 -5 5 -3 10 5 8 12 10 11 10
-7 0 -12 -4 -25 -10 -28 -5 -3 -10 -14 -10 -25 0 -10 -7 -20 -15 -24 -12 -4
-13 -10 -3 -31 13 -29 32 -28 36 3 2 13 8 19 17 16 8 -3 25 3 39 13 20 14 25
27 26 61 0 31 4 42 16 42 13 0 14 -8 8 -47 -8 -60 -8 -59 -55 -88 -41 -26 -43
-42 -8 -64 14 -8 25 -9 31 -3 17 17 35 3 30 -23 -2 -14 -8 -22 -13 -19 -5 3
-9 -2 -9 -10 0 -8 -10 -18 -22 -22 l-23 -7 25 -9 c25 -10 25 -10 4 -20 -15 -7
-20 -18 -20 -43 2 -37 16 -62 16 -27 0 12 9 26 20 32 11 6 20 17 20 25 0 8 6
18 14 22 7 4 15 14 17 21 3 10 9 9 24 -2 20 -15 19 -16 -13 -42 -26 -20 -32
-32 -28 -49 4 -17 1 -24 -17 -30 -12 -4 -27 -7 -33 -6 -7 1 -15 -6 -18 -16 -5
-12 3 -24 26 -42 39 -31 47 -32 62 -7 8 14 8 20 -1 23 -17 6 -16 23 1 23 8 0
17 7 20 16 5 13 9 14 20 5 19 -16 80 -4 99 17 17 20 11 105 -7 99 -6 -2 -10
-14 -8 -25 2 -12 -2 -22 -8 -22 -13 0 -17 12 -23 72 -4 44 -3 47 14 37 11 -5
19 -17 19 -25 0 -9 7 -14 17 -12 22 4 29 28 9 28 -9 0 -16 8 -16 21 0 13 4 18
12 13 13 -9 58 -14 58 -7 0 16 -24 44 -35 40 -7 -3 -25 1 -40 9 -36 19 -36 18
-29 -12 7 -27 7 -27 -13 -7 -12 12 -19 33 -19 56 0 38 9 49 20 22 8 -23 46
-19 46 4 0 21 -32 37 -51 26 -5 -4 -16 1 -24 11 -20 28 -28 11 -16 -32 6 -21
9 -40 7 -42 -6 -6 -56 29 -56 39 0 5 7 6 15 3 19 -8 19 3 0 40 -17 33 -11 88
11 107 8 6 14 16 14 21 0 6 -7 5 -15 -2 -22 -18 -27 -8 -13 26 8 18 21 29 33
29 15 0 21 8 23 32 2 20 11 37 23 43 11 6 19 21 19 35 0 14 2 25 4 25 2 0 11
3 20 6 10 4 16 1 16 -9 0 -8 5 -17 12 -19 8 -3 5 -11 -10 -23 -15 -14 -22 -31
-22 -57 0 -21 -4 -38 -10 -38 -5 0 -10 -4 -10 -10 0 -14 12 -12 35 6 14 11 16
18 8 21 -17 6 -16 28 0 42 11 8 13 6 13 -12 -1 -16 5 -22 19 -22 16 0 21 8 23
39 2 21 -1 42 -6 45 -6 3 -12 22 -14 41 -2 29 0 34 14 32 44 -7 23 129 -26
169 -11 9 -18 20 -15 23 8 8 89 -69 114 -106 9 -16 24 -28 33 -28 20 0 41 -29
42 -57 0 -27 16 -38 34 -24 17 15 26 4 26 -33 0 -22 -3 -27 -9 -17 -13 21 -29
5 -42 -41 -10 -38 -9 -43 15 -65 27 -24 46 -23 46 3 0 8 5 14 10 14 6 0 10 -6
10 -14 0 -8 -4 -18 -10 -21 -13 -8 -13 -45 1 -45 5 0 8 -4 5 -9 -15 -24 -15
-86 0 -103 9 -9 14 -24 11 -32 -4 -9 -2 -18 3 -21 6 -4 10 1 10 10 0 12 5 15
16 11 9 -3 20 -6 25 -6 20 0 7 -18 -17 -24 -21 -6 -25 -11 -20 -31 6 -25 -9
-45 -17 -23 -3 9 -11 6 -26 -10 -12 -12 -30 -22 -41 -22 -21 0 -60 -36 -60
-56 0 -7 -18 -42 -40 -78 -22 -36 -40 -70 -40 -75 0 -12 -50 -23 -92 -21 -79
5 -86 2 -113 -43 -14 -24 -25 -51 -25 -60 0 -18 -34 -57 -49 -57 -5 0 -11 7
-15 15 -3 8 -12 15 -21 15 -8 0 -15 6 -15 14 0 13 -20 26 -41 26 -6 0 -7 -9
-4 -21 4 -13 2 -24 -4 -29 -7 -4 -13 -20 -15 -36 -2 -16 -4 -32 -5 -36 -2 -16
-20 -7 -26 12 -10 32 -59 22 -63 -13 -4 -36 -32 -24 -32 13 0 31 -14 47 -25
29 -5 -7 -12 -2 -20 13 -9 18 -9 26 2 39 20 24 16 41 -7 34 -12 -4 -20 -2 -20
5 0 8 -10 10 -25 8 -25 -5 -34 5 -15 17 16 10 12 28 -5 21 -17 -6 -21 9 -5 19
16 10 12 45 -6 52 -8 3 -20 1 -26 -5 -11 -11 -48 19 -48 38 0 6 -13 10 -29 10
-17 0 -32 4 -36 10 -4 6 -15 6 -31 0 -33 -13 -32 -14 -26 15 5 27 -12 35 -22
10 -3 -8 -10 -15 -15 -15 -6 0 -8 7 -5 15 8 20 -19 46 -37 34 -23 -15 -29 -10
-29 21 l0 31 -29 -22 c-24 -17 -34 -20 -58 -12 -25 9 -28 13 -25 52 1 28 -3
47 -14 58 -12 12 -14 27 -10 55 8 46 -14 53 -40 12 -14 -20 -15 -27 -5 -34 9
-5 10 -9 2 -14 -7 -5 -14 4 -17 23 -7 33 -30 42 -36 14 -2 -12 -6 -14 -11 -7
-4 7 6 37 22 68 20 40 24 56 14 56 -7 0 -13 5 -13 11 0 8 -4 8 -15 -1 -19 -16
-49 12 -42 40 3 13 0 20 -8 20 -9 0 -5 9 10 25 14 13 25 32 25 42 -1 14 -6 12
-28 -13 -15 -17 -32 -39 -39 -50 -11 -17 -12 -17 -10 8 1 15 4 25 8 22 10 -6
25 17 32 46 l6 25 -21 -25 c-20 -24 -21 -24 -16 -3 3 12 1 24 -5 26 -7 2 -5
19 6 50 16 47 7 65 -13 27 -6 -11 -16 -18 -21 -14 -6 3 1 20 15 39 30 39 31
45 12 45 -8 0 -24 -14 -36 -31 -28 -39 -35 -32 -15 15 8 20 22 52 30 72 17 40
10 68 -11 40 -8 -11 -14 -13 -19 -7 -3 6 -1 11 6 11 8 0 9 3 3 9 -18 19 -4
108 22 136 28 30 30 41 9 49 -11 4 -14 13 -9 31 6 26 -4 33 -23 14 -7 -7 -10
1 -9 29 0 22 4 40 7 39 4 -1 7 3 8 8 1 6 -3 10 -8 10 -37 0 -21 75 28 128 31
34 41 55 51 109 14 75 6 112 -35 168 -37 50 -24 62 70 64 78 1 79 1 98 34 10
18 16 39 13 47 -4 12 -11 11 -40 -8 -19 -12 -35 -28 -36 -34 0 -9 -16 -13 -45
-13 -41 0 -47 3 -69 39 -33 52 -59 142 -101 353 -42 212 -42 217 -12 211 12
-2 51 5 87 15 58 17 65 22 68 46 2 15 10 30 18 33 8 3 14 13 14 23 0 10 7 23
15 30 22 18 19 27 -11 33 -18 3 -32 -2 -49 -18 -23 -24 -121 -59 -136 -49 -20
12 -7 24 26 24 23 0 38 6 41 15 4 9 11 15 18 14 30 -4 39 3 16 13 l-25 10 35
13 c32 12 33 14 10 15 -16 2 -19 4 -8 7 28 7 31 33 4 33 -35 0 -56 -10 -56
-27 0 -8 -5 -11 -12 -7 -8 5 -9 0 -6 -14 7 -25 -9 -30 -18 -7 -4 8 -12 15 -20
15 -18 0 -47 -56 -40 -78 3 -9 1 -24 -4 -32 -7 -11 -10 -5 -10 23 0 23 8 51
21 68 11 16 18 33 15 38 -3 5 1 14 9 21 8 7 15 23 15 36 0 13 4 24 10 24 5 0
6 -7 3 -17 -4 -10 -2 -14 5 -9 6 3 14 1 17 -5 5 -7 28 -9 66 -5 34 4 60 2 64
-4 4 -7 13 -7 25 0 10 5 32 10 49 10 16 0 32 3 34 8 3 4 3 37 0 74 -5 55 -8
66 -22 61 -13 -4 -13 -2 2 10 9 8 17 22 17 31 0 9 5 16 10 16 6 0 10 18 9 43
-2 31 4 55 19 79 12 19 22 46 22 59 0 14 9 42 21 63 11 21 18 45 15 52 -4 9 4
18 19 24 24 9 30 22 39 90 5 40 21 104 43 170 8 25 15 62 14 83 -1 20 3 37 9
37 5 0 10 5 10 12 0 6 15 24 33 40 17 15 26 27 18 26 -7 -2 -15 2 -18 9 -3 7
3 9 16 6 13 -3 21 -1 21 8 0 7 3 9 7 6 3 -4 11 1 18 10 9 13 9 22 -3 46 -11
22 -12 31 -2 37 6 4 11 10 11 14 -4 29 1 38 18 33 16 -4 21 2 26 24 4 16 13
29 20 29 9 0 12 6 8 16 -5 14 -3 14 15 3 17 -11 24 -11 34 -1 9 9 9 15 0 24
-16 16 -15 68 1 68 7 0 18 -5 25 -12 9 -9 15 -8 27 8 8 10 12 25 10 32 -9 25
7 44 34 38 14 -3 20 -3 14 0 -22 10 -14 29 27 67 32 29 37 39 26 43 -20 8 -88
-51 -244 -210 -68 -69 -127 -126 -131 -126 -4 0 -63 -80 -131 -177 -99 -143
-153 -208 -274 -333 -83 -86 -180 -193 -216 -237 -36 -45 -68 -82 -72 -83 -5
0 -8 10 -8 23 0 12 -7 46 -14 75 -8 30 -18 93 -21 141 l-7 86 108 133 c60 74
177 233 259 355 l150 222 192 136 193 136 240 98 c214 87 269 115 227 115 -8
0 -118 -43 -246 -96 -233 -95 -233 -95 -428 -232 l-195 -137 -154 -226 c-138
-204 -332 -459 -355 -467 -5 -2 -9 5 -9 15 0 10 -26 124 -58 254 -68 277 -69
254 26 471 59 134 63 141 175 264 63 69 186 186 273 260 149 127 168 139 311
209 84 40 153 79 153 84 0 6 -3 11 -7 11 -5 0 -79 -35 -165 -78 -148 -72 -167
-85 -315 -211 -209 -179 -377 -364 -417 -460 -16 -39 -31 -69 -32 -68 -2 2 19
106 47 232 52 245 109 592 109 673 0 66 37 137 150 286 114 152 255 310 395
443 89 84 132 116 227 169 180 100 346 175 428 195 41 9 76 18 77 18 1 1 24
-7 50 -18z m-867 -2640 c0 -5 -7 -14 -15 -21 -9 -7 -14 -20 -13 -29 3 -13 -65
-113 -143 -211 -11 -14 -38 -48 -59 -76 -37 -48 -120 -124 -135 -124 -11 0
-56 -38 -56 -47 1 -4 6 -8 13 -8 6 0 13 -4 15 -10 3 -10 -42 -35 -64 -35 -22
0 -45 -47 -39 -77 3 -15 2 -34 -3 -41 -16 -25 -23 57 -10 109 16 61 126 197
344 422 143 149 165 168 165 148z m480 -1367 c-6 -15 -6 -23 -1 -19 5 3 12 1
16 -4 3 -6 -4 -15 -15 -21 -11 -6 -20 -18 -20 -27 0 -9 -3 -14 -6 -10 -3 3
-15 -3 -27 -14 -25 -23 -50 -24 -83 -3 -19 13 -22 20 -13 30 7 9 7 14 1 14 -5
0 -9 15 -8 33 1 27 6 32 30 35 16 2 33 -2 38 -10 7 -10 10 -9 19 5 6 11 22 17
44 17 33 0 34 -1 25 -26z m615 -450 c28 -2 55 -6 62 -9 6 -2 13 1 15 7 5 14
88 22 88 9 0 -6 6 -11 14 -11 8 0 16 -5 18 -12 3 -8 11 -9 24 -3 24 11 74 13
74 3 0 -4 -11 -8 -24 -8 -13 0 -26 -5 -28 -11 -2 -5 -17 -9 -33 -8 -17 1 -64
1 -105 0 -157 -2 -172 -1 -193 10 -47 25 -43 55 7 44 17 -3 54 -8 81 -11z
m331 -1351 c3 -10 10 -27 14 -38 5 -11 8 -27 8 -35 0 -8 3 -22 6 -31 5 -12 0
-18 -24 -22 -23 -5 -35 -15 -46 -42 -8 -19 -21 -35 -29 -35 -20 0 -19 -6 5
-40 17 -24 18 -29 5 -46 -15 -19 -15 -19 -30 0 -17 22 -20 92 -5 101 18 11 11
36 -21 77 -17 21 -29 42 -25 45 6 6 45 -36 46 -50 0 -5 4 -6 9 -3 4 3 11 28
15 55 4 28 11 53 17 57 8 4 9 -6 4 -35 -6 -39 6 -58 19 -28 3 6 3 -4 0 -23 -6
-30 -5 -33 8 -22 12 9 13 22 7 55 -11 58 -11 77 1 77 6 0 13 -8 16 -17z m187
-10 c4 -2 7 -11 7 -20 0 -9 7 -24 16 -34 22 -24 25 -118 5 -142 -14 -17 -9
-32 10 -32 5 0 9 -3 9 -7 0 -5 0 -20 0 -34 0 -15 -5 -24 -12 -22 -22 8 -43
-26 -44 -72 -1 -24 -7 -46 -13 -48 -6 -2 -11 -8 -11 -13 0 -12 -37 -49 -50
-49 -5 0 -10 6 -10 14 0 8 -9 18 -20 21 -26 8 -52 34 -45 45 3 5 20 7 38 4 26
-4 29 -3 15 6 -9 6 -15 17 -12 24 3 8 -6 26 -20 41 -29 31 -34 44 -11 25 22
-18 31 -5 19 28 -6 16 -18 28 -32 30 -21 3 -32 32 -12 32 6 0 10 11 10 23 0
13 9 32 20 42 16 14 19 26 14 51 -5 26 -2 34 15 43 12 7 21 20 21 31 0 10 6
21 13 23 12 6 65 -1 80 -10z"/>
<path d="M10265 9050 c-233 -79 -412 -167 -717 -353 -179 -108 -218 -137 -188
-137 5 0 90 49 187 108 301 183 519 290 741 363 115 38 192 69 192 76 0 7 -3
13 -7 12 -5 0 -98 -31 -208 -69z"/>
<path d="M11045 8540 c-7 -11 10 -20 106 -54 57 -21 99 -46 172 -104 84 -68
309 -202 337 -202 31 0 -3 25 -107 81 -68 36 -159 96 -215 141 -81 65 -112 83
-192 112 -53 19 -98 31 -101 26z"/>
<path d="M10100 6748 c0 -4 -3 -7 -7 -7 -25 4 -33 -2 -24 -18 7 -15 5 -18 -17
-19 -15 -1 -21 1 -14 3 6 3 12 9 12 14 0 6 -5 7 -11 3 -7 -4 -24 -8 -38 -9
-49 -4 -52 -5 -45 -17 6 -10 4 -10 -7 -2 -14 11 -54 12 -96 1 -29 -7 -66 -44
-50 -50 7 -3 -5 -4 -25 -2 -21 1 -35 -1 -33 -6 3 -4 1 -10 -5 -14 -5 -3 -10
-15 -10 -26 0 -11 -7 -19 -17 -20 -15 0 -15 -2 2 -9 18 -8 18 -9 2 -9 -10 -1
-20 -7 -23 -14 -5 -14 -44 -21 -44 -8 0 4 5 12 12 19 6 6 9 14 6 17 -3 3 -13
-6 -22 -20 -11 -16 -12 -25 -5 -25 8 0 6 -7 -4 -18 -10 -11 -13 -22 -7 -32 11
-17 3 -33 -12 -24 -7 4 -8 2 -4 -4 4 -8 0 -12 -11 -12 -15 0 -16 -2 -3 -10 12
-8 12 -10 -5 -10 -17 0 -17 -2 -5 -10 13 -8 13 -10 -2 -10 -21 0 -33 -39 -22
-72 6 -21 6 -22 -11 -8 -11 8 -16 10 -12 4 4 -6 0 -25 -8 -41 -14 -29 -11 -73
6 -73 5 0 17 9 27 21 9 12 29 34 45 49 15 16 27 33 27 39 0 6 11 18 25 27 14
9 25 20 25 25 0 13 52 69 64 69 6 0 24 14 40 31 17 16 40 32 53 35 13 4 23 10
23 16 0 5 5 6 10 3 6 -3 10 -2 10 2 0 5 10 10 22 10 13 1 33 7 45 14 12 7 29
8 40 4 10 -5 24 -9 32 -9 20 -1 40 -37 23 -43 -6 -3 -10 -9 -6 -14 3 -5 -2 -9
-10 -9 -27 0 -17 -28 11 -32 14 -2 28 -7 30 -13 2 -6 -32 -11 -87 -12 -96 -2
-104 3 -74 45 41 59 -68 -4 -169 -97 -57 -53 -117 -125 -117 -141 0 -16 32
-19 75 -6 43 13 45 13 45 -5 0 -25 30 -37 41 -17 5 9 21 14 40 13 l31 -2 -23
19 c-15 13 -20 21 -12 24 7 3 9 12 6 20 -6 16 5 18 27 4 11 -7 11 -10 2 -10
-7 0 -10 -5 -7 -10 4 -6 10 -8 15 -5 9 6 40 -21 40 -36 0 -5 -5 -9 -11 -9 -5
0 -7 -5 -3 -11 3 -6 0 -15 -7 -20 -11 -7 -11 -9 3 -9 9 0 19 -4 22 -8 9 -16
-58 1 -77 19 -22 20 -51 14 -43 -8 3 -8 6 -16 6 -19 0 -2 7 -1 15 2 10 4 13 2
10 -7 -7 -20 44 -42 62 -28 7 6 13 8 13 4 0 -4 6 -3 13 3 6 5 25 9 40 7 23 -3
26 -1 16 11 -12 15 1 20 17 5 11 -10 74 -2 74 10 0 4 -21 8 -47 8 -27 0 -57 2
-68 5 -11 2 -22 5 -24 5 -18 3 23 22 52 25 62 6 110 37 132 84 22 48 30 51 56
20 24 -29 24 -36 -2 -57 -21 -17 -20 -17 34 -16 31 0 59 4 63 8 4 4 15 7 25 7
30 0 32 20 5 47 -24 24 -33 43 -21 43 14 0 66 -32 61 -37 -9 -9 14 -44 25 -37
23 14 29 53 11 85 -17 30 -143 121 -209 150 -18 7 -33 17 -33 22 0 4 -12 6
-27 5 -31 -3 -41 23 -10 28 9 1 17 -2 17 -7 0 -5 7 -9 16 -9 9 0 12 5 8 12 -4
7 -3 8 5 4 6 -4 9 -12 6 -17 -4 -5 -1 -9 4 -9 6 0 11 5 11 11 0 7 11 8 33 3
17 -4 40 -7 50 -6 9 0 17 -4 17 -9 0 -6 5 -7 10 -4 6 3 10 1 10 -4 0 -6 9 -11
20 -11 11 0 20 -5 20 -11 0 -6 7 -9 15 -5 8 3 15 1 15 -5 0 -6 5 -7 10 -4 6 3
10 1 10 -5 0 -6 4 -9 9 -6 12 8 31 -39 26 -63 -2 -12 1 -21 6 -21 6 0 7 -6 2
-12 -4 -7 -7 -34 -8 -60 0 -27 -3 -47 -6 -45 -12 5 -37 -25 -43 -51 -8 -33
-37 -92 -53 -110 -17 -17 -16 -27 2 -42 12 -10 17 -5 32 26 10 21 23 39 29 41
17 6 24 -35 8 -48 -8 -6 -14 -20 -14 -31 0 -16 2 -17 14 -6 8 7 12 16 9 21 -2
4 1 7 6 7 6 0 11 5 11 11 0 6 16 30 36 53 47 55 54 64 54 71 0 3 -5 3 -12 -1
-7 -4 -8 -3 -4 4 4 6 13 9 21 5 9 -3 15 1 15 11 0 9 4 16 10 16 11 0 42 55 34
62 -2 3 0 16 5 30 5 14 10 47 12 74 1 27 6 57 11 67 5 11 5 17 -2 17 -14 0
-13 33 2 48 10 10 10 15 1 20 -6 4 -12 25 -12 47 -1 22 -3 51 -5 65 -2 14 -4
31 -5 38 -2 20 -21 14 -21 -7 0 -11 -4 -22 -10 -26 -5 -3 -6 -12 -3 -21 3 -8
-3 -23 -15 -34 -20 -19 -20 -19 -36 3 l-17 22 11 -22 c13 -29 13 -29 -9 -29
-11 0 -18 4 -15 7 2 4 0 10 -6 14 -5 3 -10 1 -10 -4 0 -6 -4 -11 -9 -11 -5 0
-7 9 -4 20 3 12 0 20 -6 20 -7 0 -9 -5 -5 -12 4 -7 3 -8 -4 -4 -7 4 -12 14
-12 22 0 8 -4 13 -9 10 -5 -3 -12 1 -15 10 -4 10 -2 13 7 8 8 -5 8 -2 -2 9 -7
9 -17 15 -21 12 -4 -3 -7 3 -6 12 1 12 -7 18 -24 19 -14 1 -33 5 -42 9 -11 4
-18 3 -18 -4 0 -6 -9 -11 -21 -11 -15 0 -19 5 -15 15 8 22 -33 20 -51 -2 -8
-10 -12 -13 -9 -7 4 7 -6 14 -24 16 -17 3 -30 1 -30 -4z m418 -172 c2 -10 -7
-29 -19 -42 -16 -17 -18 -23 -7 -19 9 4 19 2 22 -4 9 -15 14 -151 5 -145 -9 5
-40 -36 -34 -46 3 -4 -2 -13 -10 -20 -8 -7 -15 -19 -15 -27 0 -8 -4 -12 -9 -9
-5 4 -3 27 5 53 8 27 13 56 10 66 -2 9 0 14 5 11 12 -7 -11 46 -28 67 -7 8
-13 21 -13 27 0 7 -7 12 -15 12 -23 0 -37 36 -20 50 12 10 15 10 15 0 0 -8 3
-11 6 -7 3 3 20 -9 36 -26 17 -18 28 -26 24 -19 -4 6 2 25 13 41 23 32 26 47
11 54 -6 3 -5 4 2 3 7 -1 15 -11 16 -20z"/>
<path d="M10684 6708 c3 -29 -1 -49 -12 -61 -14 -16 -14 -19 4 -32 15 -11 16
-14 4 -15 -12 0 -12 -2 -2 -9 7 -4 15 -21 17 -36 1 -16 9 -33 17 -39 8 -6 13
-16 11 -22 -4 -13 24 -27 37 -19 14 9 23 -35 10 -50 -6 -7 -7 -15 -2 -17 5 -1
12 -34 16 -73 3 -38 6 -71 6 -72 0 -2 7 -3 15 -3 8 0 12 6 9 14 -7 17 14 32
27 19 14 -14 71 -3 65 12 -4 12 13 25 35 25 15 0 10 -32 -7 -44 -14 -10 -13
-14 4 -34 15 -17 32 -23 75 -25 30 -1 59 2 63 6 11 11 -15 27 -45 27 l-24 0
29 25 c29 25 50 33 40 16 -3 -5 1 -12 10 -15 11 -4 15 -14 11 -31 -5 -30 22
-50 56 -41 12 3 26 1 33 -5 23 -19 168 -8 218 17 35 17 60 18 88 3 18 -10 24
-8 35 7 12 16 11 20 -3 31 -10 7 -14 16 -10 20 4 5 13 0 20 -10 7 -9 18 -17
25 -17 6 0 11 -9 11 -19 0 -22 42 -41 48 -22 2 6 8 11 13 11 6 0 7 -5 3 -12
-5 -7 -3 -8 7 -2 8 4 22 8 31 9 10 0 18 3 18 8 0 4 0 13 0 21 0 8 -7 17 -16
20 -14 5 -15 4 -5 -8 11 -13 9 -14 -17 -7 -17 5 -34 5 -38 1 -5 -5 -19 -3 -31
3 -22 12 -22 13 -3 25 11 7 19 9 18 5 -3 -9 5 -13 25 -13 8 0 7 4 -3 10 -12 8
-10 10 8 10 16 0 21 -4 16 -12 -5 -10 -4 -10 6 -1 11 10 10 16 -5 33 -16 18
-17 20 -2 14 28 -10 19 4 -12 21 -23 12 -29 21 -27 42 2 15 11 29 21 33 25 9
2 18 -41 16 -24 -1 -30 3 -27 15 3 9 -4 24 -14 34 -16 17 -16 18 -1 12 10 -3
20 -2 23 3 4 6 -1 10 -9 10 -9 0 -16 5 -16 11 0 5 6 7 13 3 8 -5 7 -2 -2 10
-10 12 -16 14 -22 5 -4 -8 -9 -5 -14 9 -3 12 -9 21 -13 20 -13 -3 -57 20 -79
41 -12 12 -30 21 -39 21 -9 0 -25 12 -36 26 -16 19 -23 22 -29 13 -4 -7 -5
-17 -2 -23 3 -5 1 -6 -6 -2 -6 4 -8 12 -5 18 5 7 1 9 -9 5 -10 -3 -17 -3 -17
2 0 4 -15 8 -32 7 -24 -1 -32 -5 -30 -16 1 -10 -2 -9 -13 4 -8 11 -15 17 -15
13 0 -4 -10 1 -22 13 -25 23 -32 24 -60 9 -15 -8 -19 -8 -14 0 9 14 -7 14 -21
0 -7 -7 -9 -3 -6 15 4 21 1 26 -15 26 -11 0 -28 -8 -38 -17 -10 -10 -19 -17
-21 -15 -10 9 -26 -6 -19 -17 7 -11 10 -11 17 0 6 10 9 10 9 2 0 -19 -17 -24
-30 -8 -16 20 -40 19 -40 0 0 -9 7 -15 16 -13 10 2 19 -4 21 -12 3 -11 2 -12
-4 -2 -12 16 -41 -14 -46 -48 -2 -13 -13 -30 -24 -37 -20 -14 -20 -14 -80 37
-7 5 -16 10 -22 10 -14 0 -25 81 -12 89 6 4 2 12 -10 19 -20 13 -20 11 -18
-25 3 -40 -5 -63 -22 -63 -6 0 -8 4 -4 9 7 12 -24 91 -36 91 -5 0 -7 -19 -5
-42z m664 -193 c34 -15 69 -39 78 -53 l17 -25 -31 22 c-50 35 -141 62 -217 64
-58 2 -78 -2 -115 -23 -24 -14 -50 -35 -56 -48 -6 -13 -13 -22 -15 -21 -8 6
-49 -36 -49 -49 0 -16 -24 -42 -39 -42 -23 0 -60 24 -64 41 -5 20 19 53 32 45
4 -3 7 6 7 20 0 13 -4 24 -10 24 -5 0 -7 2 -4 5 3 3 15 2 28 -3 18 -7 34 -2
74 25 35 23 63 33 91 34 22 0 49 5 60 10 37 17 147 4 213 -26z m-48 -34 c0 -5
14 -11 31 -15 17 -3 28 -10 24 -16 -3 -5 2 -10 12 -10 15 0 16 -2 3 -11 -12
-9 -11 -10 8 -6 14 3 22 0 22 -9 0 -7 -6 -11 -14 -8 -10 4 -12 -2 -9 -20 6
-30 -7 -29 -77 3 -81 37 -174 22 -225 -36 -19 -22 -24 -24 -25 -10 0 9 7 17
15 17 8 0 15 5 15 11 0 5 -3 8 -7 6 -5 -3 -15 2 -23 11 -13 14 -12 15 3 9 12
-4 17 -1 17 11 0 9 14 31 32 47 18 17 28 23 23 15 -7 -12 -6 -13 7 -3 8 7 18
10 21 6 4 -3 7 -1 7 5 0 7 25 11 70 11 39 0 70 -4 70 -8z"/>
<path d="M9121 5535 c-51 -18 -72 -48 -59 -85 13 -38 38 -40 38 -2 0 33 8 45
37 61 30 15 36 14 28 -6 -4 -10 -7 -32 -6 -49 1 -24 -5 -36 -25 -49 -22 -14
-28 -15 -35 -4 -15 24 -10 -34 6 -61 15 -27 15 -28 19 28 3 30 76 46 76 17 0
-8 5 -15 10 -15 6 0 10 -9 10 -20 0 -28 34 -44 51 -24 18 21 21 88 4 74 -9 -7
-16 -6 -25 5 -10 13 -10 19 4 33 23 26 21 51 -4 45 -16 -4 -19 -2 -14 11 4 10
1 16 -9 16 -8 0 -26 9 -40 20 -14 11 -27 19 -29 19 -1 -1 -18 -7 -37 -14z"/>
<path d="M10540 3711 c0 -5 -8 -8 -17 -7 -14 1 -17 -6 -15 -33 1 -19 10 -40
19 -46 14 -11 14 -13 -6 -18 -20 -5 -22 -10 -16 -38 6 -26 5 -31 -8 -26 -13 5
-13 2 -1 -21 10 -20 10 -28 1 -34 -19 -11 0 -21 28 -14 26 7 34 30 13 40 -7 3
-2 3 12 0 14 -4 30 -7 35 -8 16 -2 10 115 -6 125 -12 8 -11 12 4 23 21 16 22
36 2 36 -9 0 -18 7 -21 15 -7 16 -24 21 -24 6z"/>
<path d="M14307 9364 c-3 -4 1 -19 10 -35 12 -20 14 -34 7 -48 -5 -11 -88 -82
-184 -158 -203 -162 -225 -190 -218 -281 5 -70 28 -118 85 -182 55 -61 113
-90 182 -90 63 0 98 17 211 105 205 158 242 185 259 185 9 0 27 -9 39 -20 23
-22 42 -26 42 -9 0 18 -132 179 -147 179 -17 0 -17 -11 3 -38 29 -41 11 -66
-119 -170 -182 -145 -241 -182 -288 -182 -82 0 -154 69 -154 147 0 36 6 48 35
77 69 68 355 286 376 286 11 0 31 -11 44 -25 26 -28 40 -32 40 -12 0 14 -195
269 -209 275 -4 1 -10 -1 -14 -4z"/>
<path d="M6520 8967 c0 -7 5 -18 11 -24 15 -15 6 -27 -56 -73 -74 -54 -110
-128 -102 -206 11 -107 86 -174 195 -174 44 0 71 10 188 70 75 39 143 70 151
70 29 0 70 -30 83 -59 17 -43 4 -87 -39 -130 -59 -59 -132 -72 -253 -45 -54
12 -28 -16 73 -82 105 -67 137 -75 119 -30 -11 29 0 44 66 94 22 17 53 54 69
84 25 44 30 64 29 118 0 71 -16 109 -61 152 -37 36 -73 48 -138 48 -55 0 -58
-1 -274 -116 -25 -13 -57 -24 -73 -24 -34 0 -78 40 -78 71 0 38 32 90 73 117
35 23 50 27 106 25 36 0 75 -3 85 -5 46 -8 19 22 -68 75 -100 61 -106 64 -106
44z"/>
<path d="M14820 8665 c7 -19 6 -36 -4 -60 -13 -31 -35 -44 -233 -143 -120 -60
-228 -112 -241 -116 -17 -6 -29 0 -53 23 -31 32 -49 39 -49 21 0 -6 23 -55 50
-110 32 -64 56 -100 66 -100 12 0 14 5 9 18 -15 35 -17 60 -6 81 8 13 88 59
212 122 111 55 199 96 196 92 -19 -31 -277 -616 -277 -628 0 -8 5 -15 11 -15
6 0 131 61 279 136 183 92 275 134 288 130 11 -4 27 -15 37 -26 17 -19 45 -27
45 -14 0 17 -105 204 -113 201 -9 -3 -9 -9 0 -45 12 -47 -11 -67 -156 -141
-78 -40 -141 -69 -141 -65 0 4 45 105 100 224 55 119 100 222 100 228 0 26
-101 212 -115 212 -11 0 -12 -5 -5 -25z"/>
<path d="M15157 7974 c-3 -3 -1 -18 5 -34 6 -19 6 -35 -1 -48 -12 -23 -499
-215 -533 -210 -13 2 -29 16 -38 33 -8 17 -16 32 -18 34 -1 3 -7 0 -12 -5 -7
-7 10 -64 52 -172 63 -162 94 -206 82 -118 -6 39 -4 46 17 59 33 21 486 197
508 197 20 0 44 -24 55 -54 5 -14 10 -16 18 -8 10 10 -2 43 -109 320 -5 13
-16 16 -26 6z"/>
<path d="M15327 7533 c-4 -3 -7 -16 -7 -28 0 -30 -23 -49 -305 -254 -137 -101
-251 -190 -253 -199 -2 -15 42 -26 300 -76 338 -66 380 -77 407 -112 25 -32
45 -32 37 0 -3 14 -15 65 -27 115 -15 66 -24 88 -34 85 -9 -4 -12 -16 -8 -39
4 -27 1 -36 -19 -49 -24 -15 -37 -14 -214 19 -104 20 -193 37 -198 38 -13 4
332 252 351 252 11 0 21 -12 27 -32 5 -18 15 -33 22 -33 18 0 19 -1 -16 147
-16 70 -32 138 -35 151 -5 22 -16 28 -28 15z"/>
<path d="M15490 6697 c0 -61 -9 -63 -302 -86 -147 -11 -275 -18 -283 -15 -8 3
-20 24 -26 45 -15 49 -29 50 -29 2 0 -59 39 -535 44 -541 3 -2 52 -7 110 -11
83 -5 106 -3 106 7 0 7 -8 15 -17 18 -123 37 -179 120 -171 249 4 58 3 57 162
69 l96 7 0 -31 c0 -41 -42 -84 -98 -101 -24 -7 -42 -18 -42 -27 0 -12 12 -13
63 -8 34 3 100 8 147 11 120 8 152 14 147 28 -2 7 -26 15 -52 19 -60 8 -97 35
-109 77 -5 17 -7 33 -5 35 2 2 61 7 130 11 l126 7 6 -65 c10 -111 -19 -172
-98 -203 -72 -27 -59 -45 28 -39 73 6 137 14 137 18 0 1 -9 115 -20 252 -11
138 -20 262 -20 278 0 17 -5 27 -15 27 -10 0 -15 -10 -15 -33z"/>
<path d="M14877 5953 c-4 -32 -9 -101 -12 -153 -3 -52 -8 -105 -11 -117 -3
-16 0 -23 10 -23 8 0 17 14 21 30 14 64 19 65 223 44 86 -9 71 -28 -107 -133
l-158 -94 -7 -66 c-8 -86 -8 -151 0 -151 4 0 21 16 38 35 17 19 87 68 156 109
l125 75 13 -37 c48 -137 233 -157 314 -34 25 38 36 102 53 302 18 218 18 220
0 220 -9 0 -15 -9 -15 -23 0 -13 -6 -32 -14 -42 -16 -23 -30 -23 -331 0 -270
21 -265 19 -265 83 0 20 -5 32 -14 32 -9 0 -15 -18 -19 -57z m496 -239 l107
-6 0 -40 c0 -50 -21 -101 -51 -122 -34 -23 -135 -22 -176 4 -42 25 -63 96 -47
158 5 19 12 22 33 18 14 -3 74 -8 134 -12z"/>
<path d="M14775 5251 c-3 -6 1 -18 9 -27 23 -23 20 -40 -20 -105 -67 -107 -57
-249 21 -317 70 -62 171 -68 246 -16 23 16 73 66 112 112 107 127 152 148 202
97 79 -79 -38 -235 -176 -235 -18 0 -29 -5 -29 -13 0 -15 215 -65 227 -53 4 3
-3 16 -15 29 l-22 23 35 48 c45 64 58 106 53 176 -8 107 -82 179 -186 180 -74
0 -110 -23 -227 -145 -100 -104 -113 -115 -145 -115 -102 0 -128 114 -47 206
40 46 93 72 161 80 32 4 56 12 56 18 0 7 -44 22 -102 35 -57 12 -113 25 -124
28 -12 2 -25 0 -29 -6z"/>
<path d="M14611 4593 c-62 -157 -73 -219 -28 -152 12 19 31 35 40 37 27 5 524
-197 531 -215 4 -9 4 -30 0 -48 -3 -18 -1 -35 4 -39 8 -5 142 307 142 329 0
17 -28 0 -42 -25 -10 -17 -24 -33 -32 -36 -24 -9 -524 194 -537 218 -7 13 -7
29 -1 48 10 27 7 40 -8 40 -4 0 -35 -71 -69 -157z"/>
<path d="M14391 4105 c-73 -141 -85 -175 -63 -175 4 0 15 14 24 30 11 19 25
30 39 30 17 0 489 -229 509 -247 2 -2 -6 -24 -19 -48 -30 -57 -74 -79 -142
-70 -75 11 -63 -14 31 -60 44 -21 81 -37 83 -34 12 13 267 518 267 527 0 10
-148 92 -165 92 -14 0 -2 -34 20 -53 14 -12 31 -38 39 -57 12 -30 12 -42 -1
-83 -7 -26 -20 -50 -28 -53 -17 -7 -504 242 -512 262 -3 7 0 28 6 46 7 18 8
35 2 41 -5 5 -42 -56 -90 -148z"/>
<path d="M14021 3524 c-82 -105 -110 -149 -103 -156 8 -8 17 -4 32 15 38 48
53 45 150 -29 l89 -68 67 -175 c61 -161 76 -222 64 -260 -3 -7 0 -15 6 -18 14
-5 137 154 129 167 -4 6 -16 3 -32 -10 -37 -29 -50 -25 -72 19 -29 55 -102
253 -97 259 8 7 309 -47 320 -58 5 -5 2 -19 -8 -36 -13 -19 -15 -29 -7 -37 6
-6 12 -9 14 -6 2 2 47 59 100 126 53 68 97 127 97 133 0 15 -17 12 -46 -7 -25
-16 -36 -15 -238 18 l-211 34 -75 60 c-41 33 -76 69 -78 79 -2 10 6 32 17 47
20 27 21 50 3 49 -4 -1 -58 -66 -121 -146z"/>
<path d="M602 3094 c-23 -35 -25 -36 -68 -29 -24 3 -44 3 -44 -1 0 -5 12 -20
26 -35 l26 -27 -26 -38 c-14 -21 -23 -40 -21 -42 3 -3 23 3 45 13 l41 18 29
-34 29 -34 1 48 c0 47 1 48 48 69 l47 22 -47 10 -48 9 0 44 c0 24 -3 43 -7 43
-5 0 -18 -16 -31 -36z"/>
<path d="M740 2895 c-38 -61 -28 -58 -134 -38 -25 5 -27 4 -18 -13 6 -10 22
-30 36 -43 14 -14 26 -28 26 -33 0 -5 -16 -32 -35 -60 -19 -29 -33 -54 -30
-56 2 -2 30 8 62 23 l58 27 43 -48 42 -48 0 67 0 68 61 26 c67 29 64 38 -13
48 -47 7 -48 8 -49 43 -1 21 -4 49 -8 64 -6 27 -7 27 -41 -27z"/>
<path d="M899 2625 c-36 -60 -45 -63 -128 -44 -24 5 -45 8 -47 6 -3 -2 14 -24
36 -49 22 -26 40 -50 40 -55 0 -4 -16 -32 -36 -61 -20 -30 -34 -56 -31 -58 2
-3 33 8 67 23 l63 27 43 -50 44 -49 0 70 0 71 66 28 c36 16 62 32 57 36 -4 5
-33 12 -63 17 l-55 8 -3 68 c-2 37 -7 67 -11 67 -5 0 -24 -25 -42 -55z"/>
<path d="M1082 2338 l-43 -66 -71 14 c-39 8 -73 12 -75 10 -2 -2 17 -27 42
-57 50 -59 52 -43 -13 -142 -14 -20 -23 -40 -20 -42 3 -3 35 9 72 26 l67 31
49 -53 49 -54 1 76 0 77 65 28 c36 15 68 31 70 35 3 4 -26 13 -65 20 l-69 12
-6 41 c-3 23 -6 57 -7 76 l-3 34 -43 -66z"/>
<path d="M13730 2264 c-176 -143 -461 -299 -670 -368 -238 -78 -462 -110 -765
-110 -240 1 -407 16 -700 64 -165 27 -295 53 -1005 199 -384 80 -715 132
-1025 163 -195 19 -686 16 -865 -5 -450 -54 -814 -156 -1221 -345 l-87 -40 8
-44 c5 -23 52 -295 105 -603 53 -308 98 -565 100 -571 2 -7 82 15 217 60 567
191 1054 265 1653 253 472 -10 787 -53 1590 -221 686 -143 926 -176 1273 -176
209 0 325 11 500 46 311 62 626 207 910 418 114 85 242 193 242 205 0 5 -18
11 -40 15 -129 20 -345 112 -424 179 l-40 34 63 104 c129 215 218 423 267 624
30 125 30 131 -4 149 -26 13 -29 12 -82 -30z m-9 -190 c-50 -168 -123 -326
-247 -531 -41 -68 -74 -127 -74 -132 0 -16 83 -93 139 -129 64 -41 141 -76
235 -106 l69 -23 -69 -55 c-254 -205 -586 -372 -889 -447 -188 -46 -288 -56
-560 -55 -362 1 -492 19 -1277 178 -931 190 -1323 234 -1883 214 -443 -15
-906 -99 -1335 -242 -91 -30 -165 -54 -166 -53 -4 4 -184 1057 -184 1072 0 19
88 61 290 140 489 191 1048 277 1595 246 382 -22 707 -70 1245 -181 1107 -230
1274 -255 1700 -254 275 0 383 11 595 61 271 64 548 190 770 352 38 28 70 49
72 47 2 -1 -10 -48 -26 -102z"/>
<path d="M8358 1872 c-135 -26 -249 -50 -253 -53 -6 -6 119 -697 128 -705 6
-7 520 88 531 97 9 8 0 97 -12 116 -5 7 -66 -1 -196 -25 -147 -27 -190 -32
-196 -22 -8 14 -34 160 -28 164 1 2 81 18 176 36 125 23 172 36 168 45 -2 7
-8 33 -11 59 -4 25 -10 48 -14 51 -4 2 -82 -10 -174 -27 -92 -17 -170 -29
-172 -26 -3 3 -10 33 -17 68 -8 47 -8 64 1 69 7 4 69 18 139 30 201 36 222 42
222 56 0 36 -23 115 -33 114 -7 0 -123 -22 -259 -47z"/>
<path d="M9555 1878 c-33 -17 -63 -36 -67 -42 -4 -6 -8 -30 -8 -53 0 -41 -2
-43 -29 -43 -32 0 -41 -17 -41 -82 0 -36 2 -38 30 -38 l31 0 -7 -174 c-6 -156
-5 -178 10 -201 31 -47 109 -66 195 -49 31 6 31 7 31 66 l0 60 -39 -7 c-27 -4
-41 -2 -47 7 -9 14 -8 124 2 226 l6 62 43 0 c47 0 55 11 55 83 l0 37 -46 0
-46 0 4 90 c3 60 1 90 -6 90 -6 -1 -38 -15 -71 -32z"/>
<path d="M9821 1582 c-24 -180 -45 -341 -48 -358 -6 -36 -2 -38 85 -49 l52 -7
0 34 1 33 20 -28 c32 -42 95 -70 159 -70 110 0 191 78 219 211 26 125 9 207
-58 273 -67 68 -159 83 -240 40 -12 -7 -25 -11 -27 -8 -2 2 2 53 11 112 8 60
15 112 15 116 0 4 -26 11 -57 14 -32 4 -65 8 -73 11 -12 3 -22 -51 -59 -324z
m284 -18 c58 -27 76 -91 54 -193 -15 -70 -54 -111 -106 -111 -69 1 -103 46
-103 140 1 85 27 145 72 165 42 18 43 18 83 -1z"/>
<path d="M8965 1735 c-73 -26 -116 -102 -101 -177 15 -73 58 -103 208 -143 50
-14 98 -31 105 -38 31 -31 -17 -67 -88 -67 -31 0 -47 7 -68 28 -15 15 -30 33
-32 41 -4 11 -17 11 -73 3 -38 -6 -71 -13 -73 -16 -19 -19 51 -107 111 -139
34 -18 58 -22 141 -22 88 0 105 3 145 25 65 36 90 79 90 152 0 54 -3 63 -32
92 -33 32 -58 43 -211 87 -44 12 -81 29 -84 36 -11 27 18 43 77 43 53 0 61 -3
83 -31 l24 -31 64 13 c35 6 65 13 67 14 2 2 -3 18 -11 37 -18 43 -67 84 -115
98 -53 14 -180 12 -227 -5z"/>
<path d="M11022 1669 c-34 -38 -115 -84 -171 -95 -26 -6 -31 -12 -40 -56 -18
-80 -17 -82 32 -74 23 4 65 17 92 30 l51 23 -48 -245 c-26 -135 -45 -249 -41
-253 13 -11 127 -30 133 -22 8 9 140 667 140 694 0 12 -13 19 -46 24 -26 3
-52 8 -58 10 -6 2 -26 -14 -44 -36z"/>
<path d="M10491 1539 c-6 -39 -10 -73 -9 -74 10 -8 133 -23 139 -17 8 9 28
125 23 133 -2 4 -25 10 -51 14 -27 3 -57 9 -69 11 -19 5 -22 -1 -33 -67z"/>
<path d="M11434 1587 c-60 -29 -100 -77 -120 -143 -47 -156 29 -299 166 -312
27 -2 62 0 79 6 39 14 39 5 7 -65 -26 -56 -48 -73 -94 -73 -33 0 -57 22 -67
61 -6 22 -14 27 -52 33 -94 13 -96 12 -91 -38 11 -97 65 -155 164 -177 113
-25 223 31 280 142 55 110 83 321 55 420 -38 136 -199 207 -327 146z m171
-148 c34 -66 9 -168 -48 -195 -31 -15 -37 -15 -64 -1 -45 24 -59 67 -45 135
17 83 59 119 115 100 15 -6 34 -23 42 -39z"/>
<path d="M12056 1474 c-28 -33 -62 -57 -113 -82 -77 -36 -77 -36 -87 -121 l-4
-43 31 6 c18 3 59 19 92 35 33 17 61 29 62 28 1 -2 -10 -114 -26 -250 l-27
-247 30 -4 c71 -11 116 -16 116 -14 0 2 18 165 40 362 22 198 39 360 37 362
-1 1 -27 5 -57 8 l-55 7 -39 -47z"/>
<path d="M12495 1461 c-52 -24 -99 -74 -124 -132 -45 -101 -51 -304 -14 -420
52 -160 250 -222 376 -118 48 39 75 92 83 162 10 86 -10 151 -65 207 -68 71
-151 87 -233 44 -33 -17 -35 -10 -17 62 11 44 56 94 84 94 30 0 65 -24 74 -53
l11 -29 67 7 c38 4 70 8 72 10 9 10 -33 105 -57 128 -60 58 -177 75 -257 38z
m126 -356 c37 -20 49 -50 49 -125 0 -74 -28 -113 -80 -113 -43 0 -89 49 -92
96 -3 85 13 130 55 147 31 12 34 12 68 -5z"/>
<path d="M10423 1163 c-14 -77 -13 -78 58 -87 27 -4 55 -9 63 -12 9 -4 15 8
19 38 3 24 9 57 13 74 6 31 6 31 -52 42 -91 19 -89 20 -101 -55z"/>
<path d="M1396 2023 c-33 -51 -65 -93 -72 -93 -6 0 -49 7 -94 16 -45 8 -86 14
-91 12 -6 -2 17 -35 50 -73 33 -39 60 -73 61 -78 0 -4 -25 -45 -57 -92 -31
-47 -54 -87 -52 -90 3 -2 47 16 99 40 l95 43 25 -26 c14 -15 44 -50 67 -77
l43 -50 0 106 0 107 100 43 c55 24 100 46 100 49 0 3 -43 13 -96 22 -53 10
-99 20 -103 23 -3 4 -8 52 -11 108 l-5 102 -59 -92z"/>
<path d="M1840 1736 c-52 -81 -81 -116 -94 -116 -11 0 -68 9 -128 21 -60 11
-112 19 -114 16 -3 -3 25 -40 62 -83 37 -44 73 -86 80 -94 11 -13 2 -34 -61
-130 -41 -63 -70 -116 -66 -118 4 -1 43 14 87 34 43 20 98 44 121 54 l41 19
77 -92 c43 -51 81 -93 86 -95 5 -2 7 56 6 129 l-2 133 123 55 c67 30 122 57
122 61 0 4 -56 17 -124 29 l-124 23 -7 107 c-3 58 -7 119 -8 134 -2 24 -12 13
-77 -87z"/>
<path d="M6760 1502 l-106 -247 -252 3 c-139 1 -252 -1 -252 -6 0 -4 79 -73
175 -151 96 -79 179 -149 183 -155 6 -7 -28 -95 -89 -236 -115 -260 -116 -265
-98 -258 8 3 107 69 221 147 113 77 209 141 213 141 3 0 88 -68 188 -150 107
-89 183 -145 185 -137 1 7 -18 114 -43 236 -25 123 -45 229 -45 236 0 8 99 81
220 162 120 81 219 151 220 156 0 4 -114 7 -254 7 l-253 0 -48 243 c-26 133
-51 245 -54 249 -3 3 -53 -105 -111 -240z"/>
<path d="M2405 1342 c-49 -75 -90 -138 -91 -140 -1 -2 -73 10 -161 26 -87 17
-159 29 -161 27 -2 -1 42 -55 98 -120 l101 -117 -17 -27 c-10 -14 -51 -77 -92
-139 -42 -61 -73 -114 -70 -117 3 -3 70 24 150 60 80 36 149 65 154 65 5 0 52
-51 104 -114 52 -63 97 -115 100 -115 3 -1 4 72 2 162 l-4 163 156 69 c86 38
153 72 148 75 -4 4 -65 17 -137 29 -71 13 -140 25 -152 28 -23 5 -23 7 -23
164 0 87 -3 159 -7 159 -5 0 -48 -62 -98 -138z"/>
<path d="M5534 1162 l-101 -237 -248 -5 -249 -5 181 -148 c137 -112 180 -153
175 -165 -3 -10 -49 -117 -103 -240 -53 -122 -93 -222 -87 -222 5 0 101 63
213 140 113 77 209 140 214 140 5 0 65 -46 133 -103 211 -175 229 -190 233
-186 2 2 -18 111 -44 242 l-48 237 61 43 c34 24 131 91 216 148 l155 104 -244
7 c-136 4 -247 12 -250 17 -4 5 -26 113 -50 240 -25 127 -47 231 -50 231 -3 0
-51 -107 -107 -238z"/>
<path d="M3226 1040 c-60 -91 -110 -166 -111 -168 -1 -2 -85 13 -186 32 -101
19 -185 33 -188 31 -2 -2 46 -62 106 -132 60 -70 112 -133 115 -138 4 -6 -42
-85 -102 -175 -59 -91 -104 -166 -100 -168 4 -1 87 34 185 78 98 44 179 79
180 78 1 -2 53 -64 116 -138 l114 -134 3 190 2 191 175 78 c97 43 178 81 180
85 4 7 -100 29 -292 62 l-73 12 -1 101 c-1 55 -4 141 -8 190 l-6 90 -109 -165z"/>
<path d="M4385 960 c-71 -107 -130 -196 -130 -197 -1 -2 -97 15 -214 38 -118
22 -215 38 -217 36 -2 -2 57 -75 131 -162 74 -87 131 -163 128 -169 -4 -6 -60
-92 -126 -191 -65 -99 -114 -181 -109 -183 5 -1 99 38 209 88 110 49 203 90
205 90 2 0 63 -70 134 -155 71 -84 133 -154 138 -155 5 0 7 97 5 217 l-4 217
150 68 c83 37 177 79 210 94 75 33 74 33 -150 74 -93 17 -182 33 -197 36 l-28
6 -2 221 -3 222 -130 -195z"/>
</g>
</svg>
